<?xml version="1.0" encoding="UTF-8"?>
<svg version="1.1" xmlns="http://www.w3.org/2000/svg" width="1024" height="1024">
<path d="M0 0 C2.60969095 -0.00374103 5.21938077 -0.00834435 7.82906884 -0.01373065 C13.48220395 -0.02398062 19.13530485 -0.02688321 24.78844833 -0.02481842 C33.19575271 -0.02175528 41.60301953 -0.03012142 50.01031659 -0.04056767 C65.90489615 -0.0598664 81.79946277 -0.06553438 97.69405267 -0.06668179 C109.97557416 -0.06760255 122.25709061 -0.07172797 134.53861046 -0.07808304 C138.07998456 -0.07987827 141.62135867 -0.0816579 145.16273278 -0.08343279 C146.04325776 -0.08387489 146.92378274 -0.08431699 147.83099029 -0.08477248 C172.58522683 -0.09707395 197.33946163 -0.10497433 222.09370136 -0.10408592 C223.02619761 -0.10405476 223.95869386 -0.10402361 224.91944758 -0.10399151 C229.64519161 -0.1038253 234.37093564 -0.10362722 239.09667967 -0.10342209 C240.50437564 -0.10336225 240.50437564 -0.10336225 241.94050992 -0.10330121 C243.83831277 -0.10322034 245.73611561 -0.10313674 247.63391846 -0.10305043 C277.14147867 -0.10182571 306.64899287 -0.1168263 336.15653992 -0.14419556 C369.34835322 -0.17496978 402.5401363 -0.19212479 435.73196477 -0.19026911 C439.27679678 -0.19011986 442.82162879 -0.19002244 446.3664608 -0.18996048 C447.23921378 -0.18993717 448.11196676 -0.18991386 449.01116679 -0.18988985 C463.00825944 -0.1898285 477.00531189 -0.20255744 491.00239261 -0.21982501 C505.09089427 -0.23684484 519.17933764 -0.23870596 533.26784394 -0.22560637 C541.61844758 -0.21825895 549.96887318 -0.22174784 558.31945766 -0.24149105 C563.91963101 -0.25360319 569.51967718 -0.25077725 575.119845 -0.23655005 C578.29609451 -0.22888012 581.47194154 -0.2292512 584.6481779 -0.24346475 C609.19398297 -0.34591842 632.84865854 2.46581268 656.18852234 10.26742554 C657.00788269 10.53957886 657.82724304 10.81173218 658.6714325 11.09213257 C669.99509357 14.91585155 680.67651075 19.59187466 691.18852234 25.26742554 C691.79003113 25.58824097 692.39153992 25.9090564 693.01127625 26.23959351 C738.94565223 50.90411118 773.16338082 92.70254425 791.18852234 141.26742554 C791.61906921 142.41082397 792.04961609 143.55422241 792.49320984 144.73226929 C795.18016539 152.28411641 797.1428963 159.88561606 798.87602234 167.70492554 C799.17971741 169.06134155 799.17971741 169.06134155 799.48954773 170.44515991 C803.08690671 187.37179106 803.4794605 203.83808603 803.45594788 221.0789032 C803.45968891 223.68859414 803.46429223 226.29828397 803.46967852 228.90797204 C803.47992849 234.56110715 803.48283108 240.21420805 803.4807663 245.86735153 C803.47770316 254.27465591 803.4860693 262.68192273 803.49651555 271.08921978 C803.51581428 286.98379935 803.52148226 302.87836597 803.52262966 318.77295587 C803.52355043 331.05447736 803.52767585 343.33599381 803.53403091 355.61751366 C803.53582615 359.15888776 803.53760577 362.70026187 803.53938067 366.24163598 C803.53982277 367.12216096 803.54026486 368.00268593 803.54072036 368.90989349 C803.55302183 393.66413003 803.56092221 418.41836483 803.5600338 443.17260456 C803.56000264 444.10510081 803.55997148 445.03759706 803.55993938 445.99835077 C803.55977318 450.72409481 803.5595751 455.44983883 803.55936997 460.17558286 C803.55931013 461.58327884 803.55931013 461.58327884 803.55924909 463.01941311 C803.55916821 464.91721596 803.55908462 466.81501881 803.5589983 468.71282166 C803.55777359 498.22038187 803.57277418 527.72789607 803.60014343 557.23544312 C803.63091766 590.42725642 803.64807267 623.6190395 803.64621699 656.81086797 C803.64606774 660.35569998 803.64597032 663.90053198 803.64590836 667.445364 C803.64587339 668.75449346 803.64587339 668.75449346 803.64583772 670.09006999 C803.64577638 684.08716264 803.65850532 698.08421508 803.67577288 712.08129581 C803.69279271 726.16979747 803.69465384 740.25824084 803.68155424 754.34674714 C803.67420683 762.69735078 803.67769571 771.04777638 803.69743892 779.39836086 C803.70955106 784.99853421 803.70672513 790.59858038 803.69249793 796.19874819 C803.684828 799.37499771 803.68519907 802.55084474 803.69941263 805.7270811 C803.80194007 830.2905612 800.9558028 853.90453539 793.18852234 877.26742554 C792.93232117 878.05488159 792.67612 878.84233765 792.41215515 879.65365601 C775.04697498 932.30479513 736.33926175 976.10863142 687.22758484 1001.37680054 C653.55173514 1018.25001406 619.8023228 1024.58589079 582.37704468 1024.53485107 C579.76735373 1024.5385921 577.15766391 1024.54319542 574.54797584 1024.54858172 C568.89484073 1024.55883169 563.24173983 1024.56173428 557.58859634 1024.55966949 C549.18129196 1024.55660635 540.77402515 1024.56497249 532.36672809 1024.57541875 C516.47214853 1024.59471748 500.57758191 1024.60038546 484.682992 1024.60153286 C472.40147052 1024.60245363 460.11995407 1024.60657905 447.83843422 1024.61293411 C444.29706012 1024.61472934 440.75568601 1024.61650897 437.2143119 1024.61828387 C436.33378692 1024.61872596 435.45326194 1024.61916806 434.54605439 1024.61962355 C409.79181785 1024.63192502 385.03758305 1024.6398254 360.28334332 1024.638937 C359.35084706 1024.63890584 358.41835081 1024.63887468 357.4575971 1024.63884258 C352.73185307 1024.63867638 348.00610904 1024.6384783 343.28036501 1024.63827316 C342.34190103 1024.63823327 341.40343705 1024.63819338 340.43653476 1024.63815228 C338.53873191 1024.63807141 336.64092906 1024.63798781 334.74312621 1024.6379015 C305.235566 1024.63667679 275.72805181 1024.65167738 246.22050476 1024.67904663 C213.02869145 1024.70982086 179.83690838 1024.72697587 146.64507991 1024.72512019 C143.1002479 1024.72497094 139.55541589 1024.72487352 136.01058388 1024.72481155 C134.70145441 1024.72477659 134.70145441 1024.72477659 133.36587788 1024.72474092 C119.36878524 1024.72467958 105.37173279 1024.73740852 91.37465207 1024.75467608 C77.2861504 1024.77169591 63.19770704 1024.77355704 49.10920074 1024.76045744 C40.75859709 1024.75311003 32.4081715 1024.75659891 24.05758701 1024.77634212 C18.45741366 1024.78845426 12.8573675 1024.78562833 7.25719968 1024.77140112 C4.08095016 1024.76373119 0.90510314 1024.76410227 -2.27113322 1024.77831583 C-26.81693829 1024.8807695 -50.47161386 1022.06903839 -73.81147766 1014.26742554 C-74.63083801 1013.99527222 -75.45019836 1013.7231189 -76.29438782 1013.44271851 C-87.61804889 1009.61899952 -98.29946607 1004.94297641 -108.81147766 999.26742554 C-109.71374084 998.78620239 -109.71374084 998.78620239 -110.63423157 998.29525757 C-156.56860755 973.63073989 -190.78633615 931.83230682 -208.81147766 883.26742554 C-209.24202454 882.1240271 -209.67257141 880.98062866 -210.11616516 879.80258179 C-212.80312071 872.25073466 -214.76585162 864.64923501 -216.49897766 856.82992554 C-216.70144104 855.92564819 -216.90390442 855.02137085 -217.11250305 854.08969116 C-220.70986203 837.16306001 -221.10241582 820.69676505 -221.0789032 803.45594788 C-221.08264423 800.84625693 -221.08724755 798.2365671 -221.09263384 795.62687904 C-221.10288381 789.97374393 -221.1057864 784.32064303 -221.10372162 778.66749954 C-221.10065848 770.26019516 -221.10902462 761.85292834 -221.11947087 753.44563129 C-221.1387696 737.55105173 -221.14443758 721.65648511 -221.14558499 705.7618952 C-221.14650575 693.48037371 -221.15063117 681.19885727 -221.15698624 668.91733742 C-221.15878147 665.37596332 -221.1605611 661.83458921 -221.16233599 658.2932151 C-221.16299914 656.97242763 -221.16299914 656.97242763 -221.16367568 655.62495759 C-221.17597715 630.87072104 -221.18387753 606.11648625 -221.18298912 581.36224651 C-221.18295796 580.42975026 -221.18292681 579.49725401 -221.1828947 578.5365003 C-221.1827285 573.81075627 -221.18253042 569.08501224 -221.18232529 564.35926821 C-221.1822854 563.42080423 -221.18224551 562.48234025 -221.18220441 561.51543796 C-221.18212353 559.61763511 -221.18203994 557.71983226 -221.18195363 555.82202941 C-221.18072891 526.3144692 -221.1957295 496.80695501 -221.22309875 467.29940796 C-221.25387298 434.10759465 -221.27102799 400.91581157 -221.26917231 367.72398311 C-221.26902306 364.1791511 -221.26892564 360.63431909 -221.26886368 357.08948708 C-221.26884037 356.2167341 -221.26881706 355.34398112 -221.26879305 354.44478108 C-221.2687317 340.44768844 -221.28146064 326.45063599 -221.29872821 312.45355527 C-221.31574804 298.3650536 -221.31760916 284.27661024 -221.30450957 270.18810394 C-221.29716215 261.83750029 -221.30065103 253.48707469 -221.32039425 245.13649021 C-221.33250639 239.53631686 -221.32968045 233.9362707 -221.31545325 228.33610288 C-221.30778332 225.15985336 -221.3081544 221.98400634 -221.32236795 218.80776998 C-221.57647988 157.92774469 -199.16320776 103.44123728 -156.74897766 59.95492554 C-134.9354874 38.69542867 -108.26806994 22.82925724 -79.81147766 12.26742554 C-78.09638 11.62160522 -78.09638 11.62160522 -76.34663391 10.96273804 C-68.79478679 8.27578249 -61.19328714 6.31305158 -53.37397766 4.57992554 C-52.46970032 4.37746216 -51.56542297 4.17499878 -50.63374329 3.96640015 C-33.70711214 0.36904117 -17.24081717 -0.02351262 0 0 Z " fill="#7451AD" transform="translate(220.8114776611328,-0.267425537109375)"/>
<path d="M0 0 C0.05139383 54.38463689 0.09915059 108.76927607 0.12702942 163.15393066 C0.12744359 163.95980664 0.12785776 164.76568262 0.12828448 165.59597909 C0.13726478 183.11300417 0.1455751 200.63002951 0.15319599 218.14705524 C0.15693775 226.73833636 0.16082745 235.32961742 0.16479492 243.92089844 C0.1651872 244.77579993 0.16557948 245.63070141 0.16598364 246.51150901 C0.17875051 274.18380278 0.20127157 301.85607809 0.22889166 329.52836069 C0.25724091 357.98309319 0.27566824 386.43781548 0.28174497 414.89256186 C0.28260934 418.91853268 0.28358625 422.94450347 0.28463173 426.97047424 C0.284834 427.76278447 0.28503627 428.55509469 0.28524467 429.37141431 C0.28877945 442.08680657 0.30266548 454.80216711 0.3204961 467.51754647 C0.33823111 480.3241798 0.3448857 493.13078194 0.34050413 505.9374271 C0.33843384 512.86684593 0.34105048 519.79618044 0.35761642 526.72558212 C0.37233877 533.08493992 0.37287321 539.44414405 0.36269668 545.80350929 C0.36144107 548.08925403 0.36514128 550.37500881 0.37464955 552.66073412 C0.59437405 608.80178592 -17.46763886 656.88593843 -57 697 C-65.49765503 705.52186487 -75.04362446 712.31345711 -85 719 C-86.08152344 719.73347656 -87.16304687 720.46695313 -88.27734375 721.22265625 C-108.51776336 734.32552763 -132.20821886 742.65620628 -156 746 C-157.26951915 746.17969763 -158.53903829 746.35939525 -159.84702772 746.54453826 C-173.11285381 748.27986162 -186.30379922 748.28025997 -199.66371155 748.25396729 C-202.23275749 748.25627525 -204.80180277 748.25945401 -207.37084669 748.26342177 C-212.92871504 748.27059871 -218.48654444 748.27045487 -224.04441452 748.26532745 C-232.30948216 748.25772344 -240.57451729 748.2616501 -248.83958475 748.26774407 C-263.60565457 748.27824703 -278.37170702 748.2773742 -293.13777846 748.27158624 C-306.05953541 748.26654635 -318.98128601 748.26524582 -331.90304375 748.26763153 C-332.76164701 748.2677843 -333.62025027 748.26793707 -334.50487182 748.26809447 C-337.99059829 748.26871719 -341.47632476 748.269354 -344.96205122 748.270014 C-377.6302145 748.27612573 -410.29836675 748.27059492 -442.96652833 748.2598202 C-471.96410096 748.25032884 -500.96165603 748.25117969 -529.95922852 748.26074219 C-562.57084292 748.27146065 -595.18244759 748.27569306 -627.79406351 748.26951766 C-631.27296634 748.26887627 -634.75186918 748.26825058 -638.23077202 748.26763153 C-639.51557662 748.2673943 -639.51557662 748.2673943 -640.82633687 748.26715227 C-653.7378605 748.26488121 -666.64937708 748.26753061 -679.56089973 748.27259064 C-694.24704874 748.27831759 -708.93317775 748.27686147 -723.61932427 748.26602915 C-731.82979573 748.26017231 -740.04022382 748.25975042 -748.25069412 748.2673215 C-754.39205445 748.27235815 -760.53336408 748.2668647 -766.67471819 748.25737235 C-769.15091239 748.2551468 -771.62711243 748.2562555 -774.10330284 748.26112393 C-791.48095405 748.29265687 -808.15360289 747.68307676 -825.0625 743.25 C-826.0834375 742.98687012 -827.104375 742.72374023 -828.15625 742.45263672 C-875.03328051 730.04618429 -916.1914172 698.8768233 -940.63549805 656.96899414 C-957.99140957 626.30625013 -966.38023036 594.34586894 -966.22705078 559.13110352 C-966.22648524 557.28654995 -966.22680601 555.44199593 -966.22793579 553.59744263 C-966.22850474 548.63770484 -966.2168254 543.6780657 -966.20278788 538.71835065 C-966.19020338 533.5173934 -966.18910397 528.31643338 -966.18673706 523.11546326 C-966.18054482 513.28801029 -966.16416483 503.46060234 -966.14403808 493.63316911 C-966.12160848 482.43594268 -966.11066797 471.23871399 -966.10064721 460.04147065 C-966.07979638 437.02762224 -966.04466471 414.01381365 -966 391 C-961.67346696 392.43893882 -957.34732069 393.87903708 -953.02124023 395.31933594 C-951.80334557 395.72437347 -950.5854509 396.12941101 -949.33065033 396.54672241 C-940.8759011 399.36244079 -932.44939641 402.23748009 -924.0625 405.25 C-922.94939453 405.64445312 -921.83628906 406.03890625 -920.68945312 406.4453125 C-915.37195047 408.34730643 -910.12253284 410.33640119 -904.921875 412.5390625 C-899.09116662 415.00171012 -893.18189285 417.09891686 -887.1875 419.125 C-885.3197087 419.76341307 -883.45193061 420.40186508 -881.5843811 421.04098511 C-879.4099414 421.78481592 -877.23499008 422.52713972 -875.06005859 423.26953125 C-864.53268106 426.86657666 -854.01654168 430.49642565 -843.5 434.125 C-841.72394882 434.73760178 -841.72394882 434.73760178 -839.91201782 435.36257935 C-823.53669123 441.01376439 -807.18986828 446.73912177 -790.875 452.5625 C-776.48704675 457.69774473 -762.08419576 462.77420872 -747.6312561 467.72431946 C-737.23819397 471.28604622 -726.85554537 474.87809784 -716.47113037 478.4649353 C-711.6765292 480.12071516 -706.88140854 481.77498851 -702.08633423 483.42939758 C-698.75229207 484.58158427 -695.42002331 485.73878922 -692.08789062 486.89648438 C-688.2610813 488.22464229 -684.42805245 489.52934292 -680.58398438 490.80664062 C-679.78067688 491.07784729 -678.97736938 491.34905396 -678.14971924 491.628479 C-676.69291646 492.11995757 -675.23306872 492.60254398 -673.76971436 493.07415771 C-671.87597656 493.71972656 -671.87597656 493.71972656 -669 495 C-666.16176894 503.51469318 -673.05143715 512.52288182 -676 521 C-640.36 521 -604.72 521 -568 521 C-568 479.09 -568 437.18 -568 394 C-515.2 394 -462.4 394 -408 394 C-408 429.64 -408 465.28 -408 502 C-404.7 502 -401.4 502 -398 502 C-398 508.27 -398 514.54 -398 521 C-362.36 521 -326.72 521 -290 521 C-291.32 521.66 -292.64 522.32 -294 523 C-289.73655516 530.91207363 -285.31863741 538.72394802 -280.8125 546.5 C-280.16337646 547.6226123 -279.51425293 548.74522461 -278.84545898 549.90185547 C-276.89828248 553.26866366 -274.9492892 556.63441467 -273 560 C-271.85928499 561.97130208 -270.71865427 563.94265295 -269.578125 565.9140625 C-267.05361206 570.27692855 -264.52739314 574.63880186 -262 579 C-258.19439766 578.41933397 -255.473423 577.33578266 -252.17578125 575.3671875 C-251.2434668 574.81627441 -250.31115234 574.26536133 -249.35058594 573.69775391 C-248.34801758 573.09624512 -247.34544922 572.49473633 -246.3125 571.875 C-244.13712077 570.58786197 -241.96132551 569.30142686 -239.78515625 568.015625 C-238.66254395 567.34982422 -237.53993164 566.68402344 -236.38330078 565.99804688 C-231.027683 562.8352257 -225.64006273 559.72864419 -220.25 556.625 C-219.18531494 556.01116455 -218.12062988 555.3973291 -217.02368164 554.76489258 C-205.48410145 548.1168758 -193.93257387 541.48767328 -182.34570312 534.92236328 C-179.94599925 533.54354919 -177.56969232 532.1445174 -175.20117188 530.71435547 C-174.57007507 530.33891098 -173.93897827 529.96346649 -173.28875732 529.5766449 C-172.07149466 528.85171756 -170.85990664 528.11714924 -169.65509033 527.37171936 C-167.34421997 526.00657217 -165.53254899 525.01406306 -162.81811523 524.94238281 C-160.04668065 526.55455612 -159.0575324 528.68086399 -157.48828125 531.45703125 C-157.16268219 532.02342316 -156.83708313 532.58981506 -156.50161743 533.17337036 C-155.79677862 534.40243784 -155.09771413 535.63483068 -154.40377808 536.87008667 C-152.5412347 540.18530866 -150.63795528 543.47714263 -148.7421875 546.7734375 C-148.35254318 547.45395676 -147.96289886 548.13447601 -147.56144714 548.83561707 C-142.83016766 557.08214498 -137.85618532 565.17861537 -132.88598633 573.2824707 C-129.14397991 579.40370237 -125.50917557 585.56938814 -121.97105408 591.8094635 C-118.60033231 597.73852009 -115.06475083 603.56124328 -111.5 609.375 C-110.86835937 610.40882813 -110.23671875 611.44265625 -109.5859375 612.5078125 C-108.05907845 615.00630913 -106.53043267 617.50369139 -105 620 C-100.53664009 618.6647035 -96.80698175 616.88947835 -92.80859375 614.5078125 C-92.22950256 614.16534988 -91.65041138 613.82288727 -91.05377197 613.470047 C-89.17867902 612.36000685 -87.30818328 611.24245214 -85.4375 610.125 C-82.83996233 608.58483583 -80.24015054 607.04852466 -77.640625 605.51171875 C-76.99417526 605.12877151 -76.34772552 604.74582428 -75.6816864 604.35127258 C-69.71706223 600.82127517 -63.71126731 597.3655741 -57.6875 593.9375 C-56.79925537 593.4317041 -55.91101074 592.9259082 -54.99584961 592.40478516 C-52.99804372 591.2684185 -50.99953311 590.13332379 -49 589 C-49.86457383 586.56347376 -50.80065811 584.31417043 -52.18802071 582.12763405 C-56.05848294 575.98705577 -56.81314172 570.92221396 -56.96435547 563.75146484 C-57.02568665 562.11777451 -57.02568665 562.11777451 -57.08825684 560.45108032 C-57.21162064 556.87116683 -57.29484906 553.29223012 -57.3671875 549.7109375 C-57.39380589 548.4802013 -57.42042427 547.2494651 -57.44784927 545.98143387 C-57.56742089 540.13659573 -57.66367119 534.29215294 -57.72795951 528.44644201 C-57.79573 522.40759877 -57.92773669 516.37809817 -58.16064453 510.34326172 C-59.88823416 463.95163105 -59.88823416 463.95163105 -52.24807358 455.65736771 C-47.0200463 451.06837426 -40.92453551 448.90043727 -34.31864929 447.08280945 C-28.53915557 445.19707527 -23.64881689 441.82734112 -18.5625 438.5625 C-16.7550733 437.474181 -14.94451897 436.39101314 -13.12890625 435.31640625 C-12.37681885 434.86724854 -11.62473145 434.41809082 -10.84985352 433.95532227 C-9 433 -9 433 -7 433 C-9.37298014 428.8321806 -11.74843389 424.66577534 -14.125 420.5 C-14.66039398 419.56110428 -14.66039398 419.56110428 -15.206604 418.60324097 C-20.94647346 408.54136641 -26.75272465 398.52145208 -32.65673828 388.5546875 C-33.20056152 387.63042969 -33.74438477 386.70617187 -34.3046875 385.75390625 C-35.0160083 384.55229858 -35.0160083 384.55229858 -35.74169922 383.32641602 C-37 381 -37 381 -39 376 C-47.415 379.96 -47.415 379.96 -56 384 C-56 372.78 -56 361.56 -56 350 C-59.93695801 350.04713135 -63.87391602 350.0942627 -67.93017578 350.14282227 C-80.92990156 350.29187107 -93.92961411 350.39178859 -106.92996407 350.46630955 C-114.81312767 350.51269963 -122.69548133 350.57593171 -130.578125 350.67895508 C-137.44947281 350.76871828 -144.32023408 350.8267368 -151.1921519 350.84679645 C-154.83049126 350.85852166 -158.46715283 350.8860287 -162.10495377 350.95157051 C-166.16854175 351.02418843 -170.22922228 351.02590606 -174.29345703 351.02172852 C-175.49683212 351.054086 -176.70020721 351.08644348 -177.94004822 351.11978149 C-185.9272288 351.03079722 -185.9272288 351.03079722 -189.04922104 348.03095818 C-190.59218093 345.74533775 -191.82333485 343.49009447 -193 341 C-193.928125 339.5459375 -193.928125 339.5459375 -194.875 338.0625 C-196 336 -196 336 -196 334 C-199.56266534 336.10388681 -203.12510304 338.20815879 -206.6875 340.3125 C-207.69490234 340.90740234 -208.70230469 341.50230469 -209.74023438 342.11523438 C-211.20493164 342.98051758 -211.20493164 342.98051758 -212.69921875 343.86328125 C-213.59471436 344.39219971 -214.49020996 344.92111816 -215.4128418 345.46606445 C-217.16035128 346.5021692 -218.88342775 347.58045707 -220.58129883 348.69604492 C-223 350 -223 350 -227 350 C-227 293.9 -227 237.8 -227 180 C-170.57 180 -114.14 180 -56 180 C-56.11882877 129.12434227 -56.11882877 129.12434227 -56.27026367 78.2487793 C-56.28381348 68.42346191 -56.28381348 68.42346191 -56.28633118 63.82820129 C-56.28913348 60.60910376 -56.30040484 57.39015367 -56.31672668 54.1710968 C-56.33725047 50.06920386 -56.3434835 45.96752641 -56.33921683 41.86558688 C-56.34010947 40.35755288 -56.3460901 38.84951161 -56.35764539 37.34152162 C-56.3724973 35.30945608 -56.36719562 33.2772726 -56.36076355 31.24516296 C-56.36352893 30.10490504 -56.36629431 28.96464712 -56.36914349 27.78983593 C-56 25 -56 25 -54.622962 23.18442535 C-52.49228817 21.62947576 -50.33471517 20.66234658 -47.90185547 19.63989258 C-46.86423065 19.19966263 -45.82660583 18.75943268 -44.75753784 18.30586243 C-43.63872223 17.84012314 -42.51990662 17.37438385 -41.3671875 16.89453125 C-40.21960968 16.4104631 -39.07203186 15.92639496 -37.88967896 15.42765808 C-34.84434981 14.14496651 -31.79636251 12.86887528 -28.74707031 11.59564209 C-26.25160238 10.55171443 -23.75903703 9.50096111 -21.26656914 8.44989491 C-18.30118708 7.19970496 -15.33424296 5.95324358 -12.3671875 4.70703125 C-11.24432343 4.23521927 -10.12145935 3.76340729 -8.96456909 3.27729797 C-7.9332486 2.84652451 -6.9019281 2.41575104 -5.83935547 1.97192383 C-4.92685028 1.59014481 -4.01434509 1.20836578 -3.07418823 0.8150177 C-1 0 -1 0 0 0 Z " fill="#B798D5" transform="translate(995,247)"/>
<path d="M0 0 C0.74878418 0.00572021 1.49756836 0.01144043 2.26904297 0.01733398 C8.4368092 0.21640229 12.81110715 1.49686805 17.625 5.5 C18.58986328 6.27923828 18.58986328 6.27923828 19.57421875 7.07421875 C25.2413571 12.17107902 28.46685313 17.80590522 28.99748993 25.48351669 C29.21091325 30.59058136 29.18585747 35.69761545 29.17089844 40.80810547 C29.17964759 42.78742465 29.19013606 44.76673678 29.20221615 46.74603844 C29.23016723 52.14972814 29.23346479 57.55318915 29.23249221 62.95694065 C29.23567957 68.73011208 29.26152937 74.50318627 29.28462219 80.27630615 C29.32572855 91.44641013 29.34583071 102.61645565 29.35870928 113.78662395 C29.37441556 126.63870302 29.41236765 139.49068749 29.451141 152.34271407 C29.54206538 182.89282395 29.58822149 213.44293991 29.62115383 243.99316025 C29.62611191 248.5138103 29.63148434 253.03445981 29.63685429 257.55510938 C29.67673455 291.31782116 29.70139772 325.0805292 29.67675781 358.84326172 C29.67623775 359.55707575 29.67571769 360.27088978 29.67518187 361.00633454 C29.66460428 374.83756548 29.64373022 388.66877594 29.625 402.5 C65.265 402.5 100.905 402.5 137.625 402.5 C137.625 421.97 137.625 441.44 137.625 461.5 C101.985 461.5 66.345 461.5 29.625 461.5 C29.625 497.14 29.625 532.78 29.625 569.5 C10.155 569.5 -9.315 569.5 -29.375 569.5 C-29.375 533.86 -29.375 498.22 -29.375 461.5 C-39.98052002 461.52094727 -50.58604004 461.54189453 -61.51293945 461.56347656 C-95.45575807 461.62769133 -129.39857693 461.67217623 -163.34144052 461.70426132 C-168.61475282 461.70926408 -173.88806493 461.71444137 -179.16137695 461.71972656 C-180.73609343 461.72130043 -180.73609343 461.72130043 -182.34262236 461.72290608 C-199.33571797 461.74030608 -216.32875939 461.77184155 -233.32182286 461.80861118 C-250.76135397 461.84603185 -268.20085672 461.86823824 -285.64042634 461.87635398 C-296.39952235 461.8818394 -307.15846519 461.89915785 -317.91751405 461.93166587 C-325.2977768 461.95282763 -332.67796048 461.95919627 -340.05825136 461.95400551 C-344.31480421 461.95144633 -348.57108959 461.95533896 -352.82759476 461.9768219 C-356.72962028 461.99637135 -360.63119995 461.99721608 -364.53324654 461.98359558 C-365.93990226 461.98191366 -367.34658647 461.98691676 -368.75318662 461.99953273 C-380.25935837 462.0966766 -390.07019181 460.61433471 -398.65234375 452.4375 C-405.35182669 444.90248064 -406.86412274 438.19491969 -406.63671875 428.22265625 C-405.93175941 418.19539884 -399.00439963 412.51996891 -392.375 405.5 C-391.15875102 404.11105847 -389.94944004 402.71598271 -388.75 401.3125 C-385.76908282 397.87674804 -382.58764847 394.69395639 -379.34765625 391.50390625 C-376.80800002 388.92401784 -374.46621633 386.19916948 -372.109375 383.453125 C-369.80708887 380.86046044 -367.35166918 378.44777512 -364.85546875 376.04296875 C-361.77187255 372.82919434 -361.1227363 370.75186753 -361.0965271 366.43171692 C-361.08536362 365.38423782 -361.07420013 364.33675873 -361.06269836 363.25753784 C-361.06053818 362.10883209 -361.05837799 360.96012634 -361.05615234 359.77661133 C-361.04108391 357.96179008 -361.04108391 357.96179008 -361.02571106 356.11030579 C-361.00009495 352.79236997 -360.9832546 349.47460563 -360.97028303 346.15661073 C-360.95466315 342.68921161 -360.92786931 339.22189945 -360.9022522 335.75456238 C-360.8554441 329.18857462 -360.81870987 322.62257055 -360.78557932 316.05650109 C-360.74737224 308.58130847 -360.69795841 301.10620315 -360.64759517 293.63108408 C-360.54424513 278.25411913 -360.45499477 262.87710526 -360.375 247.5 C-359.78822857 247.50590778 -359.20145714 247.51181557 -358.59690475 247.51790237 C-344.27229107 247.65796064 -329.9484732 247.73091635 -315.62318039 247.73059464 C-308.69511787 247.73203144 -301.76848986 247.75558381 -294.84082031 247.83251953 C-288.14872838 247.90677529 -281.45921479 247.91765068 -274.76663971 247.89070892 C-272.21983512 247.89065333 -269.67293783 247.91146535 -267.12648773 247.9539566 C-251.73830039 248.7763437 -251.73830039 248.7763437 -238.47029495 242.31744003 C-236.17867419 239.84697986 -234.28706703 237.27915203 -232.375 234.5 C-231.14228588 233.06826666 -229.89648005 231.6474201 -228.625 230.25 C-228.09390625 229.62609375 -227.5628125 229.0021875 -227.015625 228.359375 C-224.58897553 225.60917227 -221.96013769 223.07611823 -219.34765625 220.50390625 C-216.80162171 217.91753849 -214.45478443 215.1846472 -212.08984375 212.43359375 C-209.87330603 209.93430862 -207.50337719 207.61718116 -205.12109375 205.27734375 C-203.31022357 203.43406426 -201.62178646 201.52177201 -199.9375 199.5625 C-196.89820349 196.03365237 -193.66483153 192.76994973 -190.34765625 189.50390625 C-187.80162171 186.91753849 -185.45478443 184.1846472 -183.08984375 181.43359375 C-180.87330603 178.93430862 -178.50337719 176.61718116 -176.12109375 174.27734375 C-174.31022357 172.43406426 -172.62178646 170.52177201 -170.9375 168.5625 C-167.89820349 165.03365237 -164.66483153 161.76994973 -161.34765625 158.50390625 C-158.80162171 155.91753849 -156.45478443 153.1846472 -154.08984375 150.43359375 C-151.87330603 147.93430862 -149.50337719 145.61718116 -147.12109375 143.27734375 C-145.31022357 141.43406426 -143.62178646 139.52177201 -141.9375 137.5625 C-138.89820349 134.03365237 -135.66483153 130.76994973 -132.34765625 127.50390625 C-129.80162171 124.91753849 -127.45478443 122.1846472 -125.08984375 119.43359375 C-122.87330603 116.93430862 -120.50337719 114.61718116 -118.12109375 112.27734375 C-116.31022357 110.43406426 -114.62178646 108.52177201 -112.9375 106.5625 C-109.89820349 103.03365237 -106.66483153 99.76994973 -103.34765625 96.50390625 C-100.80162171 93.91753849 -98.45478443 91.1846472 -96.08984375 88.43359375 C-93.87330603 85.93430862 -91.50337719 83.61718116 -89.12109375 81.27734375 C-87.31022357 79.43406426 -85.62178646 77.52177201 -83.9375 75.5625 C-80.89820349 72.03365237 -77.66483153 68.76994973 -74.34765625 65.50390625 C-71.80162171 62.91753849 -69.45478443 60.1846472 -67.08984375 57.43359375 C-64.87330603 54.93430862 -62.50337719 52.61718116 -60.12109375 50.27734375 C-58.31022357 48.43406426 -56.62178646 46.52177201 -54.9375 44.5625 C-51.89820349 41.03365237 -48.66483153 37.76994973 -45.34765625 34.50390625 C-42.80162171 31.91753849 -40.45478443 29.1846472 -38.08984375 26.43359375 C-35.87504438 23.93626872 -33.50813513 21.6204159 -31.125 19.28515625 C-29.28164574 17.40477032 -27.58028079 15.44348879 -25.875 13.4375 C-18.50696228 4.95109941 -11.51114889 -0.10224654 0 0 Z " fill="#000001" transform="translate(616.375,179.5)"/>
<path d="M0 0 C2.60969095 -0.00374103 5.21938077 -0.00834435 7.82906884 -0.01373065 C13.48220395 -0.02398062 19.13530485 -0.02688321 24.78844833 -0.02481842 C33.19575271 -0.02175528 41.60301953 -0.03012142 50.01031659 -0.04056767 C65.90489615 -0.0598664 81.79946277 -0.06553438 97.69405267 -0.06668179 C109.97557416 -0.06760255 122.25709061 -0.07172797 134.53861046 -0.07808304 C138.07998456 -0.07987827 141.62135867 -0.0816579 145.16273278 -0.08343279 C146.04325776 -0.08387489 146.92378274 -0.08431699 147.83099029 -0.08477248 C172.58522683 -0.09707395 197.33946163 -0.10497433 222.09370136 -0.10408592 C223.02619761 -0.10405476 223.95869386 -0.10402361 224.91944758 -0.10399151 C229.64519161 -0.1038253 234.37093564 -0.10362722 239.09667967 -0.10342209 C240.50437564 -0.10336225 240.50437564 -0.10336225 241.94050992 -0.10330121 C243.83831277 -0.10322034 245.73611561 -0.10313674 247.63391846 -0.10305043 C277.14147867 -0.10182571 306.64899287 -0.1168263 336.15653992 -0.14419556 C369.34835322 -0.17496978 402.5401363 -0.19212479 435.73196477 -0.19026911 C439.27679678 -0.19011986 442.82162879 -0.19002244 446.3664608 -0.18996048 C447.23921378 -0.18993717 448.11196676 -0.18991386 449.01116679 -0.18988985 C463.00825944 -0.1898285 477.00531189 -0.20255744 491.00239261 -0.21982501 C505.09089427 -0.23684484 519.17933764 -0.23870596 533.26784394 -0.22560637 C541.61844758 -0.21825895 549.96887318 -0.22174784 558.31945766 -0.24149105 C563.91963101 -0.25360319 569.51967718 -0.25077725 575.119845 -0.23655005 C578.29609451 -0.22888012 581.47194154 -0.2292512 584.6481779 -0.24346475 C609.19398297 -0.34591842 632.84865854 2.46581268 656.18852234 10.26742554 C657.00788269 10.53957886 657.82724304 10.81173218 658.6714325 11.09213257 C669.99509357 14.91585155 680.67651075 19.59187466 691.18852234 25.26742554 C691.79003113 25.58824097 692.39153992 25.9090564 693.01127625 26.23959351 C738.94565223 50.90411118 773.16338082 92.70254425 791.18852234 141.26742554 C791.61906921 142.41082397 792.04961609 143.55422241 792.49320984 144.73226929 C795.18016539 152.28411641 797.1428963 159.88561606 798.87602234 167.70492554 C799.17971741 169.06134155 799.17971741 169.06134155 799.48954773 170.44515991 C803.08690671 187.37179106 803.4794605 203.83808603 803.45594788 221.0789032 C803.45968891 223.68859414 803.46429223 226.29828397 803.46967852 228.90797204 C803.47992849 234.56110715 803.48283108 240.21420805 803.4807663 245.86735153 C803.47770316 254.27465591 803.4860693 262.68192273 803.49651555 271.08921978 C803.51581428 286.98379935 803.52148226 302.87836597 803.52262966 318.77295587 C803.52355043 331.05447736 803.52767585 343.33599381 803.53403091 355.61751366 C803.53582615 359.15888776 803.53760577 362.70026187 803.53938067 366.24163598 C803.53982277 367.12216096 803.54026486 368.00268593 803.54072036 368.90989349 C803.55302183 393.66413003 803.56092221 418.41836483 803.5600338 443.17260456 C803.56000264 444.10510081 803.55997148 445.03759706 803.55993938 445.99835077 C803.55977318 450.72409481 803.5595751 455.44983883 803.55936997 460.17558286 C803.55931013 461.58327884 803.55931013 461.58327884 803.55924909 463.01941311 C803.55916821 464.91721596 803.55908462 466.81501881 803.5589983 468.71282166 C803.55777359 498.22038187 803.57277418 527.72789607 803.60014343 557.23544312 C803.63091766 590.42725642 803.64807267 623.6190395 803.64621699 656.81086797 C803.64606774 660.35569998 803.64597032 663.90053198 803.64590836 667.445364 C803.64587339 668.75449346 803.64587339 668.75449346 803.64583772 670.09006999 C803.64577638 684.08716264 803.65850532 698.08421508 803.67577288 712.08129581 C803.69279271 726.16979747 803.69465384 740.25824084 803.68155424 754.34674714 C803.67420683 762.69735078 803.67769571 771.04777638 803.69743892 779.39836086 C803.70955106 784.99853421 803.70672513 790.59858038 803.69249793 796.19874819 C803.684828 799.37499771 803.68519907 802.55084474 803.69941263 805.7270811 C803.80194007 830.2905612 800.9558028 853.90453539 793.18852234 877.26742554 C792.93232117 878.05488159 792.67612 878.84233765 792.41215515 879.65365601 C775.04697498 932.30479513 736.33926175 976.10863142 687.22758484 1001.37680054 C653.55173514 1018.25001406 619.8023228 1024.58589079 582.37704468 1024.53485107 C579.76735373 1024.5385921 577.15766391 1024.54319542 574.54797584 1024.54858172 C568.89484073 1024.55883169 563.24173983 1024.56173428 557.58859634 1024.55966949 C549.18129196 1024.55660635 540.77402515 1024.56497249 532.36672809 1024.57541875 C516.47214853 1024.59471748 500.57758191 1024.60038546 484.682992 1024.60153286 C472.40147052 1024.60245363 460.11995407 1024.60657905 447.83843422 1024.61293411 C444.29706012 1024.61472934 440.75568601 1024.61650897 437.2143119 1024.61828387 C436.33378692 1024.61872596 435.45326194 1024.61916806 434.54605439 1024.61962355 C409.79181785 1024.63192502 385.03758305 1024.6398254 360.28334332 1024.638937 C359.35084706 1024.63890584 358.41835081 1024.63887468 357.4575971 1024.63884258 C352.73185307 1024.63867638 348.00610904 1024.6384783 343.28036501 1024.63827316 C342.34190103 1024.63823327 341.40343705 1024.63819338 340.43653476 1024.63815228 C338.53873191 1024.63807141 336.64092906 1024.63798781 334.74312621 1024.6379015 C305.235566 1024.63667679 275.72805181 1024.65167738 246.22050476 1024.67904663 C213.02869145 1024.70982086 179.83690838 1024.72697587 146.64507991 1024.72512019 C143.1002479 1024.72497094 139.55541589 1024.72487352 136.01058388 1024.72481155 C134.70145441 1024.72477659 134.70145441 1024.72477659 133.36587788 1024.72474092 C119.36878524 1024.72467958 105.37173279 1024.73740852 91.37465207 1024.75467608 C77.2861504 1024.77169591 63.19770704 1024.77355704 49.10920074 1024.76045744 C40.75859709 1024.75311003 32.4081715 1024.75659891 24.05758701 1024.77634212 C18.45741366 1024.78845426 12.8573675 1024.78562833 7.25719968 1024.77140112 C4.08095016 1024.76373119 0.90510314 1024.76410227 -2.27113322 1024.77831583 C-26.81693829 1024.8807695 -50.47161386 1022.06903839 -73.81147766 1014.26742554 C-74.63083801 1013.99527222 -75.45019836 1013.7231189 -76.29438782 1013.44271851 C-87.61804889 1009.61899952 -98.29946607 1004.94297641 -108.81147766 999.26742554 C-109.71374084 998.78620239 -109.71374084 998.78620239 -110.63423157 998.29525757 C-156.56860755 973.63073989 -190.78633615 931.83230682 -208.81147766 883.26742554 C-209.24202454 882.1240271 -209.67257141 880.98062866 -210.11616516 879.80258179 C-212.80312071 872.25073466 -214.76585162 864.64923501 -216.49897766 856.82992554 C-216.70144104 855.92564819 -216.90390442 855.02137085 -217.11250305 854.08969116 C-220.70986203 837.16306001 -221.10241582 820.69676505 -221.0789032 803.45594788 C-221.08264423 800.84625693 -221.08724755 798.2365671 -221.09263384 795.62687904 C-221.10288381 789.97374393 -221.1057864 784.32064303 -221.10372162 778.66749954 C-221.10065848 770.26019516 -221.10902462 761.85292834 -221.11947087 753.44563129 C-221.1387696 737.55105173 -221.14443758 721.65648511 -221.14558499 705.7618952 C-221.14650575 693.48037371 -221.15063117 681.19885727 -221.15698624 668.91733742 C-221.15878147 665.37596332 -221.1605611 661.83458921 -221.16233599 658.2932151 C-221.16299914 656.97242763 -221.16299914 656.97242763 -221.16367568 655.62495759 C-221.17597715 630.87072104 -221.18387753 606.11648625 -221.18298912 581.36224651 C-221.18295796 580.42975026 -221.18292681 579.49725401 -221.1828947 578.5365003 C-221.1827285 573.81075627 -221.18253042 569.08501224 -221.18232529 564.35926821 C-221.1822854 563.42080423 -221.18224551 562.48234025 -221.18220441 561.51543796 C-221.18212353 559.61763511 -221.18203994 557.71983226 -221.18195363 555.82202941 C-221.18072891 526.3144692 -221.1957295 496.80695501 -221.22309875 467.29940796 C-221.25387298 434.10759465 -221.27102799 400.91581157 -221.26917231 367.72398311 C-221.26902306 364.1791511 -221.26892564 360.63431909 -221.26886368 357.08948708 C-221.26884037 356.2167341 -221.26881706 355.34398112 -221.26879305 354.44478108 C-221.2687317 340.44768844 -221.28146064 326.45063599 -221.29872821 312.45355527 C-221.31574804 298.3650536 -221.31760916 284.27661024 -221.30450957 270.18810394 C-221.29716215 261.83750029 -221.30065103 253.48707469 -221.32039425 245.13649021 C-221.33250639 239.53631686 -221.32968045 233.9362707 -221.31545325 228.33610288 C-221.30778332 225.15985336 -221.3081544 221.98400634 -221.32236795 218.80776998 C-221.57647988 157.92774469 -199.16320776 103.44123728 -156.74897766 59.95492554 C-134.9354874 38.69542867 -108.26806994 22.82925724 -79.81147766 12.26742554 C-78.09638 11.62160522 -78.09638 11.62160522 -76.34663391 10.96273804 C-68.79478679 8.27578249 -61.19328714 6.31305158 -53.37397766 4.57992554 C-52.46970032 4.37746216 -51.56542297 4.17499878 -50.63374329 3.96640015 C-33.70711214 0.36904117 -17.24081717 -0.02351262 0 0 Z M-25.32102585 30.15787792 C-26.32909897 30.23539314 -27.33717209 30.31290835 -28.37579288 30.39277251 C-74.89548461 34.39808957 -117.97445133 59.89564779 -148.48725891 94.44320679 C-152.92150833 99.83137877 -156.92116777 105.47814772 -160.81147766 111.26742554 C-161.22929504 111.88214722 -161.64711243 112.4968689 -162.07759094 113.13021851 C-169.35257532 123.92653045 -174.82509237 135.25850201 -179.81147766 147.26742554 C-180.23171204 148.27289429 -180.65194641 149.27836304 -181.08491516 150.31430054 C-190.49424893 174.55274432 -192.26776888 199.768663 -192.19915771 225.50344849 C-192.20333963 228.08603307 -192.20882181 230.6686158 -192.21547753 233.25119519 C-192.22774455 238.82650171 -192.22910055 244.40172395 -192.22292709 249.97703934 C-192.21377107 258.26845236 -192.22191972 266.55978854 -192.23321833 274.85119572 C-192.25281322 289.66769639 -192.25524647 304.48416195 -192.25002313 319.3006725 C-192.24545369 332.26987295 -192.24608038 345.23905957 -192.25186348 358.20825958 C-192.25262037 359.95259146 -192.25337635 361.69692334 -192.25413143 363.44125523 C-192.25527671 366.07029157 -192.25642659 368.69932791 -192.25759067 371.32836424 C-192.26828468 395.74824176 -192.27303224 420.1681147 -192.26512051 444.58799362 C-192.26482333 445.50715611 -192.26452616 446.42631861 -192.26421998 447.37333451 C-192.26177142 454.83603488 -192.25915964 462.2987352 -192.25653585 469.76143551 C-192.24643629 498.86045932 -192.25478777 527.9594254 -192.2780304 557.05844116 C-192.30414544 589.80604946 -192.31693961 622.55362302 -192.30984265 655.30124211 C-192.30912666 658.79793755 -192.30845227 662.29463298 -192.3078022 665.79132843 C-192.30763239 666.65220462 -192.30746258 667.51308082 -192.30728763 668.40004417 C-192.30499186 681.35278672 -192.31292697 694.30549684 -192.32609367 707.25823212 C-192.34105443 722.00150358 -192.34178212 736.74469944 -192.32402276 751.48796937 C-192.31451164 759.72105661 -192.31578741 767.95396711 -192.33325745 776.18704228 C-192.34509512 782.36107564 -192.33564889 788.53491472 -192.31843508 794.7089316 C-192.31469911 797.18651217 -192.31752652 799.6641145 -192.32804673 802.14167556 C-192.41200124 823.44931427 -190.82873135 844.99014396 -183.81147766 865.26742554 C-183.59185364 865.94160522 -183.37222961 866.61578491 -183.14595032 867.31039429 C-176.96319483 886.23121678 -167.93208409 904.43502659 -155.81147766 920.26742554 C-155.1811261 921.10660522 -154.55077454 921.94578491 -153.90132141 922.81039429 C-141.05976787 939.39630224 -126.18020638 953.26019955 -108.79243469 964.93637085 C-107.08914851 966.08085153 -105.40002732 967.24636336 -103.71382141 968.41586304 C-96.60995771 973.10077988 -89.07417643 976.56524185 -81.31147766 980.01742554 C-79.76266907 980.70783936 -79.76266907 980.70783936 -78.18257141 981.41220093 C-68.26545972 985.71175781 -58.06168672 988.86302295 -47.56147766 991.39242554 C-46.29819641 991.70437866 -45.03491516 992.01633179 -43.73335266 992.33773804 C-28.00574914 995.54591134 -12.30668311 995.55498786 3.67141724 995.52812195 C6.23318612 995.53114667 8.7949541 995.53503776 11.35672051 995.53971452 C16.90202665 995.54842615 22.44729584 995.54980671 27.99260712 995.54621124 C36.23949734 995.54087841 44.48635212 995.54702544 52.73323849 995.55529418 C68.32443647 995.57049809 83.91561815 995.57224287 99.50682198 995.56977115 C111.55329736 995.56793493 123.59976743 995.569705 135.64624214 995.57399559 C137.38004473 995.57459801 139.11384733 995.5751992 140.84764992 995.57579919 C143.46071011 995.5767065 146.0737703 995.57761517 148.68683049 995.57853154 C172.96916317 995.58695602 197.25149385 995.59130037 221.53382778 995.58712482 C222.90566948 995.58689026 222.90566948 995.58689026 224.30522515 995.58665096 C228.94002773 995.58584524 233.5748303 995.58499947 238.20963287 995.58413766 C239.59022921 995.58388102 239.59022921 995.58388102 240.99871639 995.58361921 C242.85998344 995.58327255 244.72125048 995.58292402 246.58251752 995.58257362 C275.52631179 995.57721967 304.47007556 995.58513965 333.41386414 995.60360718 C365.97428641 995.62435823 398.5346898 995.6350438 431.09511906 995.63103169 C434.57223292 995.63063638 438.04934678 995.63027483 441.52646065 995.62993431 C442.38253674 995.62984358 443.23861284 995.62975285 444.12063063 995.62965937 C457.00285717 995.62849695 469.88506455 995.63511461 482.7672863 995.64574623 C497.43381165 995.6578385 512.100295 995.65931123 526.76682102 995.64695606 C534.95764209 995.64036349 543.14836251 995.64187444 551.33917537 995.65554458 C557.48194351 995.66484958 563.62460287 995.65818434 569.7673632 995.64569678 C572.232308 995.64306686 574.69726477 995.64536191 577.16219776 995.65343264 C598.62760447 995.718767 620.64312395 995.05785382 641.18852234 988.26742554 C641.9426239 988.02508179 642.69672546 987.78273804 643.47367859 987.53305054 C685.95862583 973.79782195 720.29395625 947.33585578 745.18852234 910.26742554 C745.9219989 909.1859021 746.65547546 908.10437866 747.41117859 906.99008179 C753.47399296 897.62466079 757.88991026 887.53645247 762.18852234 877.26742554 C762.6848114 876.08406616 763.18110046 874.90070679 763.69242859 873.68148804 C766.41666083 866.62751992 768.21439856 859.44682363 769.87602234 852.07992554 C770.07872742 851.19651489 770.2814325 850.31310425 770.49028015 849.40292358 C774.28480942 831.62279836 774.47842911 813.75885826 774.44248962 795.66223145 C774.44479803 793.11167241 774.4479771 790.56111405 774.45194411 788.01055706 C774.45852127 782.49606705 774.4589802 776.98163075 774.45384979 771.4671402 C774.4462412 763.26638527 774.45017483 755.06566307 774.45626641 746.86490831 C774.46676636 732.21231355 774.46589764 717.5597363 774.46010858 702.9071399 C774.45506704 690.08275362 774.45376891 677.25837373 774.45615387 664.43398666 C774.45630664 663.58157803 774.45645941 662.72916939 774.45661681 661.85093019 C774.45723954 658.39024777 774.45787635 654.92956536 774.45853634 651.46888296 C774.46464752 619.03749442 774.45911843 586.606117 774.44834254 554.17473019 C774.43885381 525.39849378 774.43969995 496.62227507 774.44926453 467.84603882 C774.45998812 435.4749944 774.46421232 403.1039598 774.45804 370.73291385 C774.45739862 367.27810788 774.45677294 363.82330191 774.45615387 360.36849594 C774.45599571 359.51790833 774.45583756 358.66732073 774.45567461 357.79095774 C774.45340541 344.98000148 774.45604952 332.16905235 774.46111298 319.35809708 C774.46684589 304.78114808 774.46537131 290.20421924 774.45455149 275.62727274 C774.4487041 267.48206888 774.44825889 259.33690874 774.45584384 251.19170607 C774.46089471 245.09186651 774.45536735 238.99207778 774.44589469 232.89224444 C774.44367565 230.43821609 774.44476293 227.98418184 774.44964626 225.53015734 C774.48363734 207.01652353 774.38690845 188.2087597 769.56352234 170.20492554 C769.30554871 169.21234741 769.04757507 168.21976929 768.78178406 167.19711304 C756.09886826 120.32644369 725.05826539 79.03969578 683.05839539 54.58187866 C679.80292225 52.74278137 676.50735347 50.98905854 673.18852234 49.26742554 C672.03610046 48.66414429 670.88367859 48.06086304 669.69633484 47.43930054 C639.4294661 32.47438993 608.78232677 29.11032543 575.55955505 29.13371277 C573.04177448 29.13184303 570.5239942 29.12954168 568.00621438 29.12684745 C562.54465774 29.12201563 557.08311377 29.12027249 551.62155533 29.12130356 C543.49918742 29.12283316 535.37682925 29.11865633 527.25446324 29.11342893 C511.89898109 29.10377221 496.54350229 29.10094529 481.18801746 29.10037187 C469.32307541 29.09991171 457.45813467 29.09785014 445.59319305 29.09467125 C442.17344928 29.09377365 438.7537055 29.09288383 435.33396173 29.09199637 C434.48370333 29.09177532 433.63344493 29.09155428 432.75742113 29.09132653 C408.8487624 29.08517441 384.94010411 29.08122574 361.03144455 29.08166981 C359.68006184 29.08169318 359.68006184 29.08169318 358.30137846 29.08171702 C353.73553011 29.08180012 349.16968176 29.08189916 344.60383341 29.08200172 C343.69710468 29.08202167 342.79037596 29.08204161 341.85617061 29.08206216 C340.02254286 29.0821026 338.18891511 29.0821444 336.35528736 29.08218755 C307.84852204 29.08279985 279.34176863 29.07530135 250.83500671 29.06161499 C218.77673281 29.04622971 186.71846674 29.03765028 154.66018891 29.03857821 C151.23667288 29.03865284 147.81315684 29.03870155 144.38964081 29.03873253 C143.12529379 29.03875001 143.12529379 29.03875001 141.8354044 29.03876784 C128.3129095 29.03879853 114.790425 29.03243202 101.26793318 29.02380026 C87.65744182 29.01529255 74.04696554 29.01435808 60.43647298 29.02090959 C52.36767958 29.02458488 44.29893225 29.02283393 36.2301438 29.01296724 C30.1798296 29.0061989 24.12956862 29.01007543 18.0792537 29.01784047 C15.6505457 29.01936535 13.22183259 29.01759804 10.79313061 29.01198039 C-1.28433277 28.98592182 -13.27568377 29.22260575 -25.32102585 30.15787792 Z " fill="#000000" transform="translate(220.8114776611328,-0.267425537109375)"/>
<path d="M0 0 C12.42270605 -0.02325273 24.84540685 -0.04098068 37.2681303 -0.05181217 C43.03756674 -0.05701284 48.8069882 -0.0640589 54.57641602 -0.07543945 C60.15259255 -0.08636896 65.72875475 -0.09229801 71.30494118 -0.09487724 C73.42379799 -0.09671345 75.5426541 -0.10029883 77.66150475 -0.10573006 C132.95060789 -0.24171196 180.50124631 18.07402406 220 57 C228.52186487 65.49765503 235.31345711 75.04362446 242 85 C242.73347656 86.08152344 243.46695312 87.16304688 244.22265625 88.27734375 C265.64843767 121.37442559 271.46631522 158.67626133 271.125 197.3125 C271.11492912 199.33658401 271.10581068 201.36067299 271.09765625 203.38476562 C271.07601627 208.25663741 271.04172384 213.12826055 271 218 C258.6954342 223.89833489 246.17018339 229.1859281 233.56225586 234.39770508 C231.03323218 235.44454826 228.50674164 236.49732086 225.98046875 237.55078125 C225.20664352 237.86847977 224.4328183 238.18617828 223.63554382 238.51350403 C219.48216904 240.22682888 219.48216904 240.22682888 216 243 C215.68415905 245.79379803 215.68415905 245.79379803 215.7215271 249.12490845 C215.71037558 250.42912561 215.69922405 251.73334278 215.6877346 253.07708168 C215.68536687 254.53657632 215.68317963 255.99607126 215.68115234 257.45556641 C215.67174686 259.00772315 215.66146849 260.55987482 215.6503849 262.11202049 C215.62305526 266.27842064 215.60771404 270.44478533 215.59480286 274.61125183 C215.58089803 278.51716842 215.55625266 282.42298792 215.5324707 286.32885742 C215.46915365 297.76085011 215.4231403 309.19293333 215.375 320.625 C215.25125 346.15875 215.1275 371.6925 215 398 C158.57 398 102.14 398 44 398 C44 370.61 44 343.22 44 315 C11.44582398 328.70512492 11.44582398 328.70512492 -20.98681641 342.68579102 C-23.76353162 343.89597881 -26.54182352 345.10248525 -29.3203125 346.30859375 C-30.14290558 346.6688414 -30.96549866 347.02908905 -31.8130188 347.4002533 C-32.94995682 347.89326683 -32.94995682 347.89326683 -34.10986328 348.39624023 C-34.76802032 348.6832933 -35.42617737 348.97034637 -36.10427856 349.26609802 C-38.04800938 350.01858616 -39.96938971 350.53794612 -42 351 C-41.19596043 341.71733816 -40.24211405 332.45157461 -39.25 323.1875 C-39.16485138 322.39053711 -39.07970276 321.59357422 -38.99197388 320.77246094 C-37.56807516 307.52097683 -35.89821033 294.3125083 -34.11398315 281.10525513 C-32.21984177 267.05888414 -30.69555809 253.00413012 -29.29541016 238.89941406 C-28.48498154 230.94515762 -27.45182293 223.02226944 -26.28125 215.11328125 C-26.02042446 213.34641448 -25.76001662 211.579486 -25.5 209.8125 C-25.37052979 208.93279541 -25.24105957 208.05309082 -25.10766602 207.14672852 C-24.07386645 199.93504239 -23.32830578 192.71500668 -22.734375 185.4543457 C-22.35917202 181.05588717 -21.81988367 176.74131389 -21.06640625 172.390625 C-19.77037635 164.89733539 -18.89152239 157.36170965 -18 149.8125 C-17.83358285 148.42119409 -17.66691692 147.02991791 -17.5 145.63867188 C-16.69891744 138.9488785 -15.91204161 132.25740432 -15.12524414 125.56591797 C-13.02076283 107.67291052 -10.91329078 89.78025616 -8.80258083 71.88798237 C-8.04087219 65.43070213 -7.27971787 58.9733575 -6.51977539 52.51586914 C-5.77956371 46.22620708 -5.03795475 39.93671121 -4.29536629 33.64732933 C-4.01378679 31.26038669 -3.73270894 28.87338481 -3.45214653 26.4863224 C-3.06114911 23.16040015 -2.66836054 19.83469401 -2.27514648 16.5090332 C-2.16032425 15.52873138 -2.04550201 14.54842957 -1.92720032 13.53842163 C-1.38914365 9.00306762 -0.8067195 4.4974502 0 0 Z " fill="#54BBAD" transform="translate(724,29)"/>
<path d="M0 0 C4.32653304 1.43893882 8.65267931 2.87903708 12.97875977 4.31933594 C14.19665443 4.72437347 15.4145491 5.12941101 16.66934967 5.54672241 C25.1240989 8.36244079 33.55060359 11.23748009 41.9375 14.25 C43.6071582 14.84167969 43.6071582 14.84167969 45.31054688 15.4453125 C50.62804953 17.34730643 55.87746716 19.33640119 61.078125 21.5390625 C66.90883338 24.00171012 72.81810715 26.09891686 78.8125 28.125 C80.6802913 28.76341307 82.54806939 29.40186508 84.4156189 30.04098511 C86.5900586 30.78481592 88.76500992 31.52713972 90.93994141 32.26953125 C101.46731894 35.86657666 111.98345832 39.49642565 122.5 43.125 C123.68403412 43.53340118 124.86806824 43.94180237 126.08798218 44.36257935 C142.46330877 50.01376439 158.81013172 55.73912177 175.125 61.5625 C189.51295325 66.69774473 203.91580424 71.77420872 218.3687439 76.72431946 C228.76180603 80.28604622 239.14445463 83.87809784 249.52886963 87.4649353 C254.3234708 89.12071516 259.11859146 90.77498851 263.91366577 92.42939758 C267.24770793 93.58158427 270.57997669 94.73878922 273.91210938 95.89648438 C277.7389187 97.22464229 281.57194755 98.52934292 285.41601562 99.80664062 C286.21932312 100.07784729 287.02263062 100.34905396 287.85028076 100.628479 C289.30708354 101.11995757 290.76693128 101.60254398 292.23028564 102.07415771 C294.12402344 102.71972656 294.12402344 102.71972656 297 104 C298.30135596 107.90406789 297.41960753 109.39683961 296.0703125 113.26171875 C295.84916275 113.90268494 295.628013 114.54365112 295.40016174 115.20404053 C294.6506099 117.36837647 293.88781777 119.52780713 293.125 121.6875 C292.58371135 123.24138116 292.0431212 124.79550578 291.50317383 126.34985352 C286.59985915 140.42794756 281.58802284 154.46862579 276.59332275 168.51449585 C271.452411 182.97350616 266.42088614 197.46470439 261.5 212 C256.3494994 227.21056371 251.07139779 242.37047388 245.6875 257.5 C237.69183131 279.96900151 229.8717466 302.49654774 222.09465027 325.04202271 C218.41621271 335.70155824 214.70998518 346.35141016 211 357 C205.47226214 357.05021354 199.94466299 357.08609548 194.41674805 357.10986328 C192.54432863 357.11979314 190.67192416 357.13334153 188.79956055 357.15087891 C172.43795887 357.30005951 156.84207909 356.41977048 140.9375 352.25 C139.40609375 351.85530518 139.40609375 351.85530518 137.84375 351.45263672 C90.96671949 339.04618429 49.8085828 307.8768233 25.36450195 265.96899414 C8.00859043 235.30625013 -0.38023036 203.34586894 -0.22705078 168.13110352 C-0.22648524 166.28654995 -0.22680601 164.44199593 -0.22793579 162.59744263 C-0.22850474 157.63770484 -0.2168254 152.6780657 -0.20278788 147.71835065 C-0.19020338 142.5173934 -0.18910397 137.31643338 -0.18673706 132.11546326 C-0.18054482 122.28801029 -0.16416483 112.46060234 -0.14403808 102.63316911 C-0.12160848 91.43594268 -0.11066797 80.23871399 -0.10064721 69.04147065 C-0.07979638 46.02762224 -0.04466471 23.01381365 0 0 Z " fill="#76CFBE" transform="translate(29,638)"/>
<path d="M0 0 C0.74517883 -0.01261871 1.49035767 -0.02523743 2.25811768 -0.03823853 C27.8923498 -0.38730408 50.72989292 2.24784784 74.19921875 13.2734375 C74.94107422 13.61890625 75.68292969 13.964375 76.44726562 14.3203125 C111.26374454 30.84965944 138.72953782 61.7790802 152.11108398 97.85107422 C157.85293403 114.29554194 160.4351026 130.78819971 160.44921875 148.1484375 C160.44989349 148.89020233 160.45056824 149.63196716 160.45126343 150.39620972 C160.4267361 167.34092384 157.74872118 182.27292601 152.19921875 198.2734375 C151.83054687 199.36011719 151.461875 200.44679688 151.08203125 201.56640625 C143.58212639 222.38510767 131.45528955 239.49430141 116.19921875 255.2734375 C115.27882813 256.27117187 115.27882813 256.27117187 114.33984375 257.2890625 C90.47491558 282.57170917 52.31796539 297.46063144 18.01171875 298.51953125 C-24.33989294 299.23226307 -62.20260663 285.25223219 -92.96484375 256.0390625 C-121.49270597 228.21850265 -137.39020246 190.94602022 -138.08618164 151.15063477 C-138.1760978 138.90826641 -137.69626805 127.18882166 -134.80078125 115.2734375 C-134.63449219 114.57782715 -134.46820313 113.8822168 -134.296875 113.16552734 C-126.26521848 80.71912234 -106.6280089 50.32874361 -79.80078125 30.2734375 C-78.84042969 29.54769531 -77.88007812 28.82195312 -76.890625 28.07421875 C-54.98882547 12.20856625 -27.37301986 0.42157842 0 0 Z " fill="#4ABCB9" transform="translate(204.80078125,110.7265625)"/>
<path d="M0 0 C0.37148666 1.06328018 0.74297333 2.12656036 1.12571716 3.22206116 C2.8702657 7.98595643 4.85556456 11.9196147 9 15 C17.66181467 17.79341279 27.35251375 16.92506251 36.36525655 16.72283816 C40.01274661 16.65687032 43.65979479 16.67637547 47.307724 16.6865387 C54.20416516 16.69290522 61.09762212 16.62320238 67.99329132 16.5256682 C75.84819494 16.41830677 83.70262261 16.39649459 91.5581609 16.3816117 C107.70712953 16.3491128 123.85209151 16.1987343 140 16 C140.33 26.89 140.66 37.78 141 49 C145.29 46.69 149.58 44.38 154 42 C154.99 42 155.98 42 157 42 C157.3810791 42.66193359 157.7621582 43.32386719 158.15478516 44.00585938 C165.32547082 56.4576147 172.50943636 68.90120646 179.75 81.3125 C180.33346191 82.3128125 180.91692383 83.313125 181.51806641 84.34375 C184.54395849 89.54233727 184.54395849 89.54233727 187.67675781 94.67651367 C189 97 189 97 189 99 C188.46858398 99.30067383 187.93716797 99.60134766 187.38964844 99.91113281 C176.39934042 106.13818956 165.47160938 112.45098005 154.66308594 118.98925781 C153.8899707 119.45686523 153.11685547 119.92447266 152.3203125 120.40625 C151.65273926 120.81166016 150.98516602 121.21707031 150.29736328 121.63476562 C147.22065674 123.46313363 144.10873955 125.22661394 141 127 C140.83594719 141.65630186 140.71278082 156.31248101 140.6373148 170.96951675 C140.60133152 177.77621539 140.55233928 184.58234115 140.47192383 191.38867188 C140.39428301 197.96333384 140.35395019 204.53762552 140.3358593 211.1127243 C140.32297528 213.61487921 140.29781569 216.11700348 140.2598896 218.61890411 C139.53620984 235.84551673 139.53620984 235.84551673 146.59043884 250.99993896 C147.05559402 251.65995911 147.52074921 252.31997925 148 253 C146.54399781 257.36800656 143.18412121 258.34292911 139.3125 260.375 C137.66644317 261.26280225 136.02198201 262.15356767 134.37890625 263.046875 C133.50508301 263.52189453 132.63125977 263.99691406 131.73095703 264.48632812 C127.01292397 267.10136522 122.38477205 269.86593049 117.75 272.625 C116.8211499 273.17406006 115.8922998 273.72312012 114.93530273 274.28881836 C110.81695749 276.7236299 106.70950433 279.1717992 102.6328125 281.67578125 C101.38030791 282.42985292 100.12771182 283.18377264 98.875 283.9375 C97.82054687 284.58589844 96.76609375 285.23429687 95.6796875 285.90234375 C93 287 93 287 91.01098633 286.34741211 C88.53625847 284.68928135 87.59807694 283.13480783 86.14453125 280.5390625 C85.61327637 279.60682861 85.08202148 278.67459473 84.53466797 277.71411133 C83.96635254 276.69470459 83.39803711 275.67529785 82.8125 274.625 C81.56368904 272.43217318 80.31227701 270.24082612 79.05859375 268.05078125 C78.73203796 267.47843246 78.40548218 266.90608368 78.06903076 266.31639099 C74.64735195 260.33871872 71.06239249 254.46398044 67.46453857 248.59124756 C61.57669156 238.9789275 55.81750673 229.30978424 50.27197266 219.49462891 C45.024922 210.2240469 39.52269372 201.10830114 34 192 C29.86001766 192.59499575 26.90665737 193.97741831 23.30078125 196.0703125 C22.18751465 196.71170166 21.07424805 197.35309082 19.92724609 198.01391602 C18.72226239 198.71749364 17.51734887 199.4211915 16.3125 200.125 C15.05588184 200.85213915 13.79887694 201.57861033 12.54150391 202.30444336 C9.95372136 203.7996765 7.36824311 205.2987785 4.78466797 206.80126953 C0.2173336 209.45675723 -4.36160481 212.09199032 -8.94018555 214.72802734 C-12.13350127 216.56739679 -15.32486978 218.41009912 -18.515625 220.25390625 C-23.00384682 222.84742017 -27.49345253 225.43851078 -31.984375 228.02734375 C-33.14957869 228.69913413 -34.31478053 229.37092772 -35.47998047 230.04272461 C-37.66119437 231.30022438 -39.84250157 232.55756235 -42.02392578 233.81469727 C-43.52415283 234.67985962 -43.52415283 234.67985962 -45.0546875 235.5625 C-46.51600098 236.39974609 -46.51600098 236.39974609 -48.00683594 237.25390625 C-50.11515824 238.48381825 -52.20558801 239.74465954 -54.28222656 241.02734375 C-55.34666992 241.67832031 -56.41111328 242.32929687 -57.5078125 243 C-58.46574707 243.598125 -59.42368164 244.19625 -60.41064453 244.8125 C-63 246 -63 246 -65.23095703 245.85302734 C-68.22807454 244.40782605 -69.28945491 241.46990622 -70.75 238.625 C-71.52886628 237.17509733 -72.3117473 235.72734736 -73.09765625 234.28125 C-73.54383301 233.45882812 -73.99000977 232.63640625 -74.44970703 231.7890625 C-77.57573108 226.16517293 -80.89558589 220.65280637 -84.1875 215.125 C-84.87154014 213.97354185 -85.55546149 212.82201312 -86.23925781 211.67041016 C-86.89635742 210.56487793 -87.55345703 209.4593457 -88.23046875 208.3203125 C-88.86388184 207.25329102 -89.49729492 206.18626953 -90.14990234 205.08691406 C-91.35910829 203.06933687 -92.58285038 201.06038211 -93.82275391 199.06152344 C-94.37237793 198.17239258 -94.92200195 197.28326172 -95.48828125 196.3671875 C-95.97466064 195.5922998 -96.46104004 194.81741211 -96.9621582 194.01904297 C-98 192 -98 192 -98 189 C-97.34 188.67 -96.68 188.34 -96 188 C-148.47 187.505 -148.47 187.505 -202 187 C-202 180.73 -202 174.46 -202 168 C-185.83 168 -169.66 168 -153 168 C-153 132.36 -153 96.72 -153 60 C-117.36 60 -81.72 60 -45 60 C-45 48.78 -45 37.56 -45 26 C-35.46225519 17.92424527 -35.46225519 17.92424527 -30.97265625 16.40625 C-24.22999628 13.8436121 -18.43448772 10.1201824 -12.375 6.25 C-10.42925119 5.03917265 -8.47908679 3.83539575 -6.5234375 2.640625 C-5.284729 1.87540527 -5.284729 1.87540527 -4.02099609 1.09472656 C-2 0 -2 0 0 0 Z " fill="#4ABDBA" transform="translate(799,581)"/>
<path d="M0 0 C52.8 0 105.6 0 160 0 C160 35.64 160 71.28 160 108 C163.3 108 166.6 108 170 108 C170 170.7 170 233.4 170 298 C113.9 298 57.8 298 0 298 C0 199.66 0 101.32 0 0 Z " fill="#864CCC" transform="translate(427,641)"/>
<path d="M0 0 C0 98.67 0 197.34 0 299 C-52.8 299 -105.6 299 -160 299 C-160.268125 277.818125 -160.53625 256.63625 -160.8125 234.8125 C-160.99002808 224.80965698 -160.99002808 224.80965698 -161.17114258 214.60473633 C-161.2298584 206.41149902 -161.2298584 206.41149902 -161.24076843 202.56620789 C-161.2606511 199.89850197 -161.30113125 197.23901758 -161.3724823 194.57292175 C-162.00804351 169.75416922 -162.00804351 169.75416922 -155.44928265 162.55452251 C-152.78250717 160.10967426 -149.9639343 158.07693024 -147 156 C-144.79443584 153.73503344 -144.79443584 153.73503344 -143.125 151.625 C-140.47716655 148.50760002 -137.66289144 145.64217177 -134.74609375 142.77734375 C-132.93522357 140.93406426 -131.24678646 139.02177201 -129.5625 137.0625 C-126.52320349 133.53365237 -123.28983153 130.26994973 -119.97265625 127.00390625 C-117.42662171 124.41753849 -115.07978443 121.6846472 -112.71484375 118.93359375 C-110.49830603 116.43430862 -108.12837719 114.11718116 -105.74609375 111.77734375 C-103.93522357 109.93406426 -102.24678646 108.02177201 -100.5625 106.0625 C-98.14382221 103.25423653 -95.64100317 100.60029407 -93 98 C-90.37959391 95.41990785 -87.89676588 92.78896393 -85.5 90 C-82.48358077 86.48998489 -79.26904868 83.24948724 -75.97265625 80.00390625 C-73.42662171 77.41753849 -71.07978443 74.6846472 -68.71484375 71.93359375 C-66.49830603 69.43430862 -64.12837719 67.11718116 -61.74609375 64.77734375 C-59.93522357 62.93406426 -58.24678646 61.02177201 -56.5625 59.0625 C-53.52320349 55.53365237 -50.28983153 52.26994973 -46.97265625 49.00390625 C-44.42662171 46.41753849 -42.07978443 43.6846472 -39.71484375 40.93359375 C-37.49830603 38.43430862 -35.12837719 36.11718116 -32.74609375 33.77734375 C-30.93522357 31.93406426 -29.24678646 30.02177201 -27.5625 28.0625 C-25.14382221 25.25423653 -22.64100317 22.60029407 -20 20 C-17.37959391 17.41990785 -14.89676588 14.78896393 -12.5 12 C-2.16666667 0 -2.16666667 0 0 0 Z " fill="#8F6EBD" transform="translate(587,283)"/>
<path d="M0 0 C42.24 0 84.48 0 128 0 C127.34 2.31 126.68 4.62 126 7 C125.04593091 16.28962013 125.28860362 24.33837071 131 32 C136.45467096 38.39257819 143.56395479 42.25201143 151.96417975 43.22827435 C157.59455415 43.61544826 163.23316516 43.5631945 168.8737793 43.54589844 C170.76701197 43.55464526 172.66023726 43.56513488 174.55345154 43.57722473 C179.66426679 43.6049695 184.77483945 43.60849197 189.88571906 43.60750484 C195.23757276 43.61064388 200.58931879 43.63628267 205.94111633 43.65948486 C216.06263207 43.69997265 226.18408349 43.7203686 236.3056677 43.73345876 C249.9920445 43.75232836 263.6783053 43.80241198 277.364604 43.85070229 C298.90972995 43.92590232 320.45471587 43.95955077 342 44 C342 85.91 342 127.82 342 171 C306.36 171 270.72 171 234 171 C235.31324984 165.09037573 236.54451025 160.11655597 238.625 154.5625 C240.3526506 150.38488728 240.3526506 150.38488728 241 146 C240.17270134 145.71503662 240.17270134 145.71503662 239.32868958 145.42431641 C214.53761641 136.88293543 189.75790602 128.31477039 165.0625 119.5 C150.5698222 114.32881993 136.0613543 109.21812851 121.50431824 104.23034668 C110.49820132 100.4588315 99.49853871 96.66854875 88.5 92.875 C87.31762756 92.46726349 86.13525513 92.05952698 84.91705322 91.63943481 C66.41442072 85.25508302 47.95082602 78.76739918 29.52539062 72.16357422 C28.21785828 71.69573517 28.21785828 71.69573517 26.88391113 71.21844482 C25.30743322 70.65410209 23.73143224 70.08842346 22.15612793 69.52081299 C14.80708023 66.88961443 7.41256956 64.47085652 0 62 C0 41.54 0 21.08 0 0 Z " fill="#5318B4" transform="translate(85,597)"/>
<path d="M0 0 C3.19636133 0.63927227 5.91491227 1.22394309 8.93457031 2.25585938 C10.04566162 2.63312164 10.04566162 2.63312164 11.17919922 3.01800537 C11.97084473 3.2905011 12.76249023 3.56299683 13.578125 3.84375 C14.41327637 4.12865295 15.24842773 4.41355591 16.10888672 4.70709229 C18.82378716 5.6346079 21.53695665 6.56706754 24.25 7.5 C26.12856755 8.14359315 28.00714835 8.78714765 29.88574219 9.43066406 C40.67504144 13.13328045 51.43421354 16.90574508 62.15356445 20.80664062 C73.51167022 24.93372852 84.94733297 28.83415437 96.37792969 32.75488281 C103.31589913 35.13986826 110.24575517 37.54837361 117.17553711 39.95703125 C123.2409646 42.06070508 129.3200991 44.11666383 135.41625977 46.12963867 C138.21154561 47.07126147 140.96787238 48.08312318 143.71484375 49.15625 C145.64854617 49.87023243 147.60557831 50.52053799 149.56640625 51.15625 C150.52087646 51.47251343 150.52087646 51.47251343 151.49462891 51.79516602 C153.36674372 52.41410722 155.24384419 53.0179054 157.12109375 53.62109375 C160 55 160 55 161.04296875 56.765625 C160.98206904 59.93241005 160.01312612 62.35814267 158.875 65.3125 C158.4109375 66.54742188 157.946875 67.78234375 157.46875 69.0546875 C157.22511719 69.70018555 156.98148438 70.34568359 156.73046875 71.01074219 C155.09275663 75.47066142 153.67620607 80.00861282 152.2109375 84.52734375 C150.96502429 88.10030131 149.49346788 91.52436401 148 95 C147.22267739 97.19886463 146.47373632 99.40792042 145.75 101.625 C145.32037621 102.92970848 144.89068453 104.23439461 144.4609375 105.5390625 C143.97388957 107.02601915 143.48691589 108.51300011 143 110 C141.79634289 113.66822342 140.5868017 117.33446013 139.375 121 C139.08592773 121.88381348 138.79685547 122.76762695 138.49902344 123.67822266 C137.26180396 127.41900048 136.00550261 131.10738827 134.42578125 134.71875 C133.02446547 137.9436959 131.8947143 141.15568432 130.8125 144.5 C128.66284178 151.07017701 126.40923832 157.60047392 124.125 164.125 C121.10677851 172.74930697 118.17259681 181.39723864 115.34619141 190.08642578 C113.78302532 194.84434225 111.9760784 199.39433696 110 204 C109.01 206.97 108.02 209.94 107 213 C71.69 213 36.38 213 0 213 C0 142.71 0 72.42 0 0 Z " fill="#8148CA" transform="translate(85,726)"/>
<path d="M0 0 C1.24716797 -0.020625 2.49433594 -0.04125 3.77929688 -0.0625 C17.56647261 -0.11985695 27.85614926 3.21871125 40.9375 8.25 C40.9375 64.68 40.9375 121.11 40.9375 179.25 C22.00964596 188.71392702 0.69045717 191.81308528 -20.0625 186.25 C-21.00738281 186.02699219 -21.95226562 185.80398438 -22.92578125 185.57421875 C-47.03680366 179.30612202 -67.59486602 164.01005614 -80.28125 142.58203125 C-93.14295375 119.91405258 -97.21736205 93.67985064 -90.39526367 68.33349609 C-82.97161837 43.42432243 -66.27921477 22.89674961 -43.58203125 10.27734375 C-29.20754041 2.76304277 -16.0647166 0.06500644 0 0 Z " fill="#000084" transform="translate(215.0625,165.75)"/>
<path d="M0 0 C2.9769197 1.45690827 3.8629231 3.55799749 5.48120117 6.42089844 C5.96959976 7.2704863 5.96959976 7.2704863 6.46786499 8.13723755 C7.1727038 9.36630502 7.87176829 10.59869787 8.56570435 11.83395386 C10.42824772 15.14917585 12.33152714 18.44100981 14.22729492 21.73730469 C14.61693924 22.41782394 15.00658356 23.0983432 15.40803528 23.79948425 C20.13931477 32.04601217 25.11329711 40.14248256 30.08349609 48.24633789 C33.82550251 54.36756956 37.46030686 60.53325533 40.99842834 66.77333069 C44.36915012 72.70238728 47.90473159 78.52511047 51.46948242 84.33886719 C52.10112305 85.37269531 52.73276367 86.40652344 53.38354492 87.47167969 C54.91040397 89.97017631 56.43904975 92.46755858 57.96948242 94.96386719 C62.55286792 93.60162392 66.37004705 91.73388569 70.47729492 89.29589844 C71.08403046 88.93799728 71.69076599 88.58009613 72.31588745 88.21134949 C74.24529071 87.07166935 76.16995544 85.92425847 78.09448242 84.77636719 C79.36239685 84.02518464 80.63062381 83.27452936 81.89916992 82.52441406 C88.33380805 78.719187 88.33380805 78.719187 94.75744629 74.89544678 C96.4274573 73.89758455 98.10073895 72.90520215 99.77416992 71.91308594 C100.73049316 71.34291748 101.68681641 70.77274902 102.67211914 70.18530273 C104.96948242 68.96386719 104.96948242 68.96386719 106.96948242 68.96386719 C106.96948242 101.30386719 106.96948242 133.64386719 106.96948242 166.96386719 C50.53948242 166.96386719 -5.89051758 166.96386719 -64.03051758 166.96386719 C-64.29864258 145.51386719 -64.56676758 124.06386719 -64.84301758 101.96386719 C-64.96136963 95.19757813 -65.07972168 88.43128906 -65.20166016 81.45996094 C-65.26037598 73.18066406 -65.26037598 73.18066406 -65.27128601 69.30151367 C-65.2912372 66.5961955 -65.33193359 63.89883049 -65.40299988 61.19506836 C-65.96022734 39.03153853 -65.96022734 39.03153853 -62.7997551 34.00731659 C-59.42257391 30.66315329 -55.55180639 29.33115418 -51.03051758 27.96386719 C-48.9828071 26.88909154 -48.9828071 26.88909154 -47.31762695 25.77734375 C-46.34631836 25.22530273 -45.37500977 24.67326172 -44.37426758 24.10449219 C-42.70170898 23.15110962 -42.70170898 23.15110962 -40.99536133 22.1784668 C-39.85196289 21.53014893 -38.70856445 20.88183105 -37.53051758 20.21386719 C-35.08224586 18.82516901 -32.63434564 17.43581881 -30.18676758 16.04589844 C-29.58243896 15.70301285 -28.97811035 15.36012726 -28.35546875 15.0068512 C-24.44396976 12.78268426 -20.55916096 10.5174482 -16.68676758 8.22558594 C-15.72577148 7.66129883 -14.76477539 7.09701172 -13.7746582 6.515625 C-11.98628774 5.46360494 -10.20340454 4.40218306 -8.42700195 3.33007812 C-7.63616211 2.86762695 -6.84532227 2.40517578 -6.03051758 1.92871094 C-5.34989258 1.52257568 -4.66926758 1.11644043 -3.96801758 0.69799805 C-2.03051758 -0.03613281 -2.03051758 -0.03613281 0 0 Z " fill="#8C52CF" transform="translate(832.030517578125,772.0361328125)"/>
<path d="M0 0 C0 51.48 0 102.96 0 156 C-56.43 156 -112.86 156 -171 156 C-171 128.28 -171 100.56 -171 72 C-117.41361411 48.68378629 -117.41361411 48.68378629 -99.27978516 41.14599609 C-85.7490324 35.5077276 -72.28333524 29.71707171 -58.8125 23.9375 C-57.64278656 23.43566193 -56.47307312 22.93382385 -55.26791382 22.41677856 C-52.95629404 21.42488346 -50.64474488 20.43282376 -48.33326721 19.44059753 C-46.04953593 18.46052081 -43.76555133 17.48103415 -41.48130798 16.50215149 C-36.02262867 14.1618646 -30.56709501 11.8148827 -25.12075901 9.44602489 C-22.52440529 8.31741374 -19.92630523 7.1928573 -17.32800865 6.06872749 C-15.48512687 5.26947941 -13.64473431 4.46449955 -11.80439758 3.65940857 C-10.13911263 2.93963585 -10.13911263 2.93963585 -8.44018555 2.20532227 C-7.45986862 1.77856705 -6.4795517 1.35181183 -5.4695282 0.91212463 C-3 0 -3 0 0 0 Z " fill="#030090" transform="translate(939,271)"/>
<path d="M0 0 C52.8 0 105.6 0 160 0 C160 35.64 160 71.28 160 108 C163.3 108 166.6 108 170 108 C170 114.27 170 120.54 170 127 C113.9 127 57.8 127 0 127 C0 85.09 0 43.18 0 0 Z " fill="#AF90CF" transform="translate(427,641)"/>
<path d="M0 0 C12.16193834 -0.0232558 24.32387132 -0.04098222 36.48582745 -0.05181217 C42.13419574 -0.05701218 47.78254872 -0.06405701 53.4309082 -0.07543945 C58.89037538 -0.08637135 64.34982791 -0.09229851 69.80930519 -0.09487724 C71.88350467 -0.09671303 73.95770342 -0.10029756 76.03189659 -0.10573006 C131.16277699 -0.24427065 178.63649594 18.20731242 218 57 C226.52186487 65.49765503 233.31345711 75.04362446 240 85 C240.73347656 86.08152344 241.46695313 87.16304688 242.22265625 88.27734375 C264.71797594 123.02657516 269.57373348 161.56061658 269 202 C263.4551005 199.02433404 258.66073001 195.54617734 253.75 191.625 C247.42880949 186.64391496 241.05233165 181.75947877 234.5625 177 C233.77439941 176.42185547 232.98629883 175.84371094 232.17431641 175.24804688 C229.78404497 173.49709636 227.39214542 171.74838913 225 170 C214.19774995 162.09437993 203.4719532 154.1033092 192.84301758 145.96582031 C187.04661813 141.53595589 181.20064509 137.18197928 175.3125 132.875 C169.1274359 128.34884382 163.03103014 123.72940683 157 119 C150.17153471 113.64654883 143.24622919 108.44684847 136.24609375 103.3203125 C130.46664269 99.08707673 124.72454275 94.80716398 119 90.5 C112.46616234 85.5851776 105.90443245 80.71159654 99.3125 75.875 C90.45085006 69.36628968 81.71686186 62.7006788 73 56 C62.37306825 47.83568534 51.71915422 39.73814964 40.81982422 31.94018555 C32.20415964 25.75250257 23.79780687 19.29161947 15.38671875 12.83007812 C13.18990862 11.14561733 10.98716949 9.46937851 8.78125 7.796875 C7.58330217 6.88545763 6.38538294 5.97400266 5.1875 5.0625 C4.17042969 4.29035156 3.15335938 3.51820312 2.10546875 2.72265625 C1.41066406 2.15417969 0.71585938 1.58570312 0 1 C0 0.67 0 0.34 0 0 Z " fill="#5E39A0" transform="translate(726,29)"/>
<path d="M0 0 C40.26 0 80.52 0 122 0 C122 56.1 122 112.2 122 170 C122.99 170.33 123.98 170.66 125 171 C122.35559624 172.50256989 119.70958148 174.0021612 117.0625 175.5 C115.93038086 176.14388672 115.93038086 176.14388672 114.77539062 176.80078125 C114.05673828 177.20683594 113.33808594 177.61289062 112.59765625 178.03125 C111.60004272 178.59682617 111.60004272 178.59682617 110.58227539 179.17382812 C109 180 109 180 108 180 C108 171.75 108 163.5 108 155 C72.36 155 36.72 155 0 155 C0 103.85 0 52.7 0 0 Z " fill="#2500A0" transform="translate(646,427)"/>
<path d="M0 0 C2.69407427 2.41689788 4.2670893 5.00164855 6.00390625 8.1640625 C6.57415527 9.19442627 7.1444043 10.22479004 7.73193359 11.28637695 C8.33602051 12.38812256 8.94010742 13.48986816 9.5625 14.625 C10.83584104 16.92395226 12.11058303 19.22212912 13.38671875 21.51953125 C14.00853027 22.63924316 14.6303418 23.75895508 15.27099609 24.91259766 C17.4178139 28.74607096 19.62766358 32.53734354 21.875 36.3125 C26.12269157 43.47453933 30.30679579 50.67271844 34.45684814 57.89169312 C35.18924499 59.16405828 35.92339505 60.43541599 36.65936279 61.70571899 C37.69561409 63.49514389 38.72548931 65.28809523 39.75390625 67.08203125 C40.35533447 68.12593018 40.9567627 69.1698291 41.57641602 70.24536133 C42.77524577 72.56509999 43.53546128 74.45133525 44 77 C43.01902344 77.54527344 42.03804687 78.09054687 41.02734375 78.65234375 C39.66399368 79.41393931 38.3007165 80.17566538 36.9375 80.9375 C36.30005859 81.29134766 35.66261719 81.64519531 35.00585938 82.00976562 C29.58807783 85.04268639 24.26260594 88.2235653 18.94400024 91.42601013 C14.47948474 94.11414738 10.00459688 96.78379927 5.51953125 99.4375 C4.88772446 99.81165543 4.25591766 100.18581085 3.60496521 100.57130432 C1.05729145 102.07993124 -1.49054509 103.58827575 -4.03979492 105.09423828 C-5.29600226 105.83656514 -6.55071534 106.58142554 -7.80404663 107.32859802 C-9.16494295 108.1301159 -10.53536239 108.91562184 -11.91348267 109.68714905 C-16.40609421 112.25096641 -20.32934465 115.05108555 -24.29638672 118.37670898 C-46.78040493 136.01826717 -72.6207873 132.99343546 -99.91442871 132.16729736 C-106.36385805 131.99108289 -112.81446509 131.91526778 -119.265625 131.83007812 C-131.84678991 131.64959996 -144.42280178 131.36081021 -157 131 C-157 124.73 -157 118.46 -157 112 C-140.83 112 -124.66 112 -108 112 C-108 76.36 -108 40.72 -108 4 C-72.36 4 -36.72 4 0 4 C0 2.68 0 1.36 0 0 Z " fill="#5B20B8" transform="translate(754,637)"/>
<path d="M0 0 C7.86504838 4.49431336 7.86504838 4.49431336 10.953125 6.9609375 C11.64446533 7.50733887 12.33580566 8.05374023 13.0480957 8.61669922 C13.77472412 9.19693848 14.50135254 9.77717773 15.25 10.375 C21.52509045 15.32223128 27.86044537 20.16086799 34.3125 24.875 C41.10180563 29.84029218 47.82148555 34.88665692 54.5 40 C61.11938274 45.0666281 67.77503207 50.07435459 74.5 55 C82.12740017 60.5866242 89.65644565 66.29276338 97.1640625 72.0390625 C102.8990291 76.42064465 108.67765193 80.7353507 114.5 85 C122.17887764 90.62575775 129.7668811 96.36278911 137.32885742 102.14453125 C145.18122375 108.14750425 153.08069608 114.08572494 161 120 C159.60299709 122.79400582 158.02931116 123.01268635 155.15966797 124.19946289 C154.12850861 124.63028671 153.09734924 125.06111053 152.03494263 125.50498962 C150.90708344 125.96869461 149.77922424 126.4323996 148.6171875 126.91015625 C146.22216077 127.90860933 143.82730914 128.90748252 141.43261719 129.90673828 C140.18487193 130.42510958 138.93710984 130.94344036 137.68933105 131.46173096 C131.9905155 133.8378559 126.31169545 136.2603057 120.6328125 138.68359375 C118.40197542 139.63371688 116.17109948 140.58374876 113.94018555 141.53369141 C111.66844028 142.5015883 109.39671209 143.46952525 107.125 144.4375 C105.94024078 144.94222839 104.75548157 145.44695679 103.53482056 145.96697998 C84.60501203 154.0315966 84.60501203 154.0315966 65.6875 162.125 C64.70547607 162.54547607 63.72345215 162.96595215 62.71166992 163.39916992 C56.1046419 166.23090044 49.50440903 169.07800305 42.90653992 171.93099976 C38.38840975 173.88342035 33.86834573 175.83133991 29.34805298 177.77874756 C27.08463792 178.75514492 24.82207536 179.73352102 22.56039429 180.71392822 C19.38482508 182.09028704 16.20642274 183.45989648 13.02734375 184.828125 C11.5763327 185.45994186 11.5763327 185.45994186 10.0960083 186.10452271 C8.75865631 186.67781815 8.75865631 186.67781815 7.39428711 187.26269531 C6.22524086 187.76799774 6.22524086 187.76799774 5.03257751 188.2835083 C3 189 3 189 0 189 C0 126.63 0 64.26 0 0 Z " fill="#00007E" transform="translate(768,111)"/>
<path d="M0 0 C1.75912017 0.47827724 3.51813265 0.95695062 5.27709961 1.43579102 C6.74644203 1.83556908 6.74644203 1.83556908 8.24546814 2.24342346 C16.14503274 4.4131661 23.8392847 6.85179981 31.40234375 10 C35.40308712 11.54013579 39.50855293 12.69925587 43.62890625 13.875 C47.86291164 15.28797051 51.92115557 17.18718025 56 19 C56 89.29 56 159.58 56 232 C90.98 232 125.96 232 162 232 C160.19693843 238.61122575 158.43245271 244.94845288 156.08203125 251.3359375 C155.54472271 252.82675115 155.00761903 254.31763865 154.47070312 255.80859375 C153.63748075 258.10705309 152.80170431 260.40452619 151.9621582 262.70068359 C151.14104507 264.95167024 150.32973382 267.20600507 149.51953125 269.4609375 C149.26645706 270.14433197 149.01338287 270.82772644 148.75263977 271.53182983 C147.46245262 275.14009352 146.70204285 278.16120322 147 282 C149.31 282.66 151.62 283.32 154 284 C150.85692028 285.00124452 148.77717265 284.96081154 145.578125 284.21484375 C144.72565186 284.01721436 143.87317871 283.81958496 142.99487305 283.6159668 C142.08906494 283.39207275 141.18325684 283.16817871 140.25 282.9375 C139.3113208 282.70780518 138.3726416 282.47811035 137.40551758 282.24145508 C91.49231248 270.63135397 50.83491047 239.36946108 26.51953125 198.94921875 C14.34732461 178.08074104 6.33574707 156.772454 2 133 C1.8220137 132.04016205 1.6440274 131.0803241 1.46064758 130.09140015 C-0.6134065 117.03174461 -0.25079802 103.91151793 -0.1953125 90.72265625 C-0.19157589 88.09850676 -0.18873199 85.47435586 -0.18673706 82.85020447 C-0.18056708 76.68829096 -0.16421825 70.52645 -0.14403808 64.36456817 C-0.1215379 57.33897129 -0.11065047 50.3133706 -0.10064721 43.28774655 C-0.079847 28.8584606 -0.04476009 14.42923132 0 0 Z " fill="#C2A5DC" transform="translate(29,707)"/>
<path d="M0 0 C0.33 0 0.66 0 1 0 C1 42.24 1 84.48 1 128 C-38.6 128 -78.2 128 -119 128 C-117.02 125.69 -115.04 123.38 -113 121 C-112.07380859 119.9171875 -112.07380859 119.9171875 -111.12890625 118.8125 C-107.80855884 114.970502 -104.36801275 111.33472967 -100.74609375 107.77734375 C-98.93522357 105.93406426 -97.24678646 104.02177201 -95.5625 102.0625 C-92.52320349 98.53365237 -89.28983153 95.26994973 -85.97265625 92.00390625 C-83.42662171 89.41753849 -81.07978443 86.6846472 -78.71484375 83.93359375 C-77.03995701 82.04505403 -75.30052413 80.26844352 -73.5 78.5 C-71.12775898 76.16974555 -68.90886483 73.77895594 -66.75 71.25 C-63.81720434 67.84161585 -60.69928259 64.65599786 -57.5 61.5 C-53.71596635 57.7670933 -50.12620353 53.93786619 -46.67578125 49.89453125 C-44.23467461 47.134772 -41.597094 44.58789024 -38.97265625 42.00390625 C-36.42662171 39.41753849 -34.07978443 36.6846472 -31.71484375 33.93359375 C-29.49830603 31.43430862 -27.12837719 29.11718116 -24.74609375 26.77734375 C-22.93522357 24.93406426 -21.24678646 23.02177201 -19.5625 21.0625 C-16.53043988 17.54205435 -13.3056726 14.28531123 -9.99609375 11.02734375 C-7.32192633 8.3113107 -4.83069543 5.45668648 -2.34765625 2.56640625 C-1.59150381 1.68751602 -0.81982149 0.81982149 0 0 Z " fill="#2E00A4" transform="translate(426,454)"/>
<path d="M0 0 C56.43 0 112.86 0 171 0 C171 10.23 171 20.46 171 31 C166.6996875 30.01 166.6996875 30.01 162.3125 29 C139.98265898 24.57651133 113.89477303 24.54198454 92 31 C90.12634766 31.50853516 90.12634766 31.50853516 88.21484375 32.02734375 C67.57446621 38.23049465 49.25622213 49.00612155 33 63 C31.60587891 64.19109375 31.60587891 64.19109375 30.18359375 65.40625 C20.61168845 73.81994145 13.23269052 83.29654369 6.36108398 93.96166992 C4.40670254 96.9835271 2.56215377 99.43784623 0 102 C0 68.34 0 34.68 0 0 Z " fill="#000072" transform="translate(85,85)"/>
<path d="M0 0 C45.87 0 91.74 0 139 0 C139 34.32 139 68.64 139 104 C136.05377925 102.52688963 133.78821467 101.22464911 131.19140625 99.3046875 C130.45510986 98.76183105 129.71881348 98.21897461 128.96020508 97.65966797 C128.1689624 97.07072754 127.37771973 96.48178711 126.5625 95.875 C125.73065186 95.25898926 124.89880371 94.64297852 124.04174805 94.00830078 C115.96897081 88.0125842 107.97665759 81.9120992 99.98828125 75.8046875 C95.67751494 72.5111604 91.34592053 69.24693935 87 66 C80.86426903 61.41585122 74.7721603 56.7766747 68.6875 52.125 C59.64483474 45.21888765 50.51682289 38.43759095 41.33837891 31.71337891 C30.46553621 23.74662071 19.61902467 15.74400823 8.8125 7.6875 C7.93215088 7.03467041 7.05180176 6.38184082 6.14477539 5.70922852 C5.34031982 5.10780029 4.53586426 4.50637207 3.70703125 3.88671875 C2.9900708 3.35264404 2.27311035 2.81856934 1.53442383 2.26831055 C1.02806396 1.84976807 0.5217041 1.43122559 0 1 C0 0.67 0 0.34 0 0 Z " fill="#000073" transform="translate(800,85)"/>
<path d="M0 0 C37.95 0 75.9 0 115 0 C111.11846789 5.17537615 107.63987944 9.61346895 103.0625 14 C99.06533735 17.90871898 95.26686958 21.88066777 91.640625 26.140625 C89.21397553 28.89082773 86.58513769 31.42388177 83.97265625 33.99609375 C81.42662171 36.58246151 79.07978443 39.3153528 76.71484375 42.06640625 C74.49830603 44.56569138 72.12837719 46.88281884 69.74609375 49.22265625 C67.93522357 51.06593574 66.24678646 52.97822799 64.5625 54.9375 C61.52320349 58.46634763 58.28983153 61.73005027 54.97265625 64.99609375 C52.42662171 67.58246151 50.07978443 70.3153528 47.71484375 73.06640625 C45.49830603 75.56569138 43.12837719 77.88281884 40.74609375 80.22265625 C38.93522357 82.06593574 37.24678646 83.97822799 35.5625 85.9375 C32.52320349 89.46634763 29.28983153 92.73005027 25.97265625 95.99609375 C23.42662171 98.58246151 21.07978443 101.3153528 18.71484375 104.06640625 C16.5049264 106.55822649 14.14371888 108.86932948 11.765625 111.19921875 C9.23208163 113.78320878 6.90632825 116.5319601 4.578125 119.30078125 C3 121 3 121 0 123 C0 82.41 0 41.82 0 0 Z " fill="#1A009B" transform="translate(256,427)"/>
<path d="M0 0 C43.23 0 86.46 0 131 0 C131 11.55 131 23.1 131 35 C126.875 37.35125 122.75 39.7025 118.5 42.125 C109.20092264 47.43169521 99.92576618 52.77536944 90.6875 58.1875 C82.6558133 62.88831998 74.59698261 67.53746891 66.5 72.125 C65.56244873 72.65762451 64.62489746 73.19024902 63.65893555 73.73901367 C58.50665741 76.64783682 53.31683943 79.40369289 48 82 C38.99939652 67.31524209 30.10882482 52.58742007 21.55786133 37.63500977 C16.39024991 28.61780805 11.05987102 19.70757284 5.65771484 10.8293457 C4.76366943 9.35340942 4.76366943 9.35340942 3.8515625 7.84765625 C3.05999756 6.5484021 3.05999756 6.5484021 2.25244141 5.22290039 C1 3 1 3 0 0 Z " fill="#450AAF" transform="translate(808,597)"/>
<path d="M0 0 C19.43790724 6.47930241 34.37322708 23.4878826 44 41 C55.23215515 63.843775 57.56520801 89.60486798 50 114 C41.55282248 138.34234597 25.38121043 156.5377351 3 169 C2.01 169.33 1.02 169.66 0 170 C0 113.9 0 57.8 0 0 Z " fill="#7350AD" transform="translate(256,175)"/>
<path d="M0 0 C2.90207341 3.62759176 5.49230994 7.15672514 8.0625 11 C12.89989064 18.09341175 18.29503804 24.59156904 24 31 C24.62003906 31.70511719 25.24007812 32.41023438 25.87890625 33.13671875 C49.87933465 58.74791416 87.03852544 74.62840531 121.82177734 76.12109375 C135.046697 76.54247083 147.76223012 76.0169893 160.74438477 73.38891602 C164.14396768 72.80275565 167.57689329 72.42788834 171 72 C171 79.59 171 87.18 171 95 C114.57 95 58.14 95 0 95 C0 63.65 0 32.3 0 0 Z " fill="#090095" transform="translate(85,332)"/>
<path d="M0 0 C1.41764994 0.93601246 2.83407568 1.8738792 4.25 2.8125 C5.03890625 3.33457031 5.8278125 3.85664062 6.640625 4.39453125 C7.41921875 4.92433594 8.1978125 5.45414062 9 6 C9.69795811 6.37111814 10.39591621 6.74223627 11.11502457 7.12460041 C13.4665156 9.46414566 13.48725445 11.14673373 13.54249835 14.38630885 C13.53473793 15.12074145 13.52697752 15.85517405 13.51898193 16.61186218 C13.52648319 17.39438396 13.53398444 18.17690573 13.541713 18.98314029 C13.56206459 21.61362007 13.55387316 24.243244 13.54589844 26.8737793 C13.55462941 28.75597999 13.56511352 30.63817325 13.57722473 32.52035522 C13.60516363 37.63784165 13.60848768 42.75508683 13.60750484 47.87263846 C13.61062718 53.21786684 13.63623117 58.56298547 13.65948486 63.90815735 C13.70010057 74.03348101 13.72039866 84.15874018 13.73345876 94.28413278 C13.74930996 105.81003863 13.78771762 117.33583444 13.82805204 128.86167657 C13.91052721 152.57441415 13.9645717 176.28714878 14 200 C13.1369308 200.34335593 13.1369308 200.34335593 12.25642586 200.69364834 C9.62509975 201.74119571 6.99443079 202.7903838 4.36376953 203.83959961 C3.45863113 204.19965843 2.55349274 204.55971725 1.6209259 204.93068695 C-5.15208941 207.63400685 -11.80485839 210.52840245 -18.40234375 213.63476562 C-20.24360308 214.47909085 -22.11911486 215.24807439 -24 216 C-24.66 215.67 -25.32 215.34 -26 215 C-25.88249781 213.08285907 -25.75545257 211.16630327 -25.625 209.25 C-25.52058594 207.64898437 -25.52058594 207.64898437 -25.4140625 206.015625 C-25.15136876 203.00925442 -24.67515144 200.08452239 -24.1394043 197.11523438 C-22.52069001 187.50529575 -21.48719371 177.81723177 -20.35546875 168.140625 C-20.10155132 165.98912197 -19.84733873 163.83765376 -19.59284973 161.68621826 C-18.92326155 156.02036469 -18.25684848 150.35414271 -17.59136963 144.68780518 C-16.41223467 134.65081309 -15.22835864 124.61438005 -14.04296875 114.578125 C-13.91464849 113.4908033 -13.78632824 112.4034816 -13.65411949 111.28321075 C-11.61540171 94.02118412 -9.50182691 76.76960655 -7.32162857 59.5249033 C-5.19833509 42.7253586 -3.18321539 25.91246645 -1.64575195 9.04785156 C-1.34630995 5.86869106 -1.01373741 3.04121222 0 0 Z " fill="#6E4BAA" transform="translate(755,101)"/>
<path d="M0 0 C0 36.96 0 73.92 0 112 C-2.79387563 108.50765547 -4.86564938 105.70564176 -6.9609375 101.88671875 C-7.50733887 100.89889404 -8.05374023 99.91106934 -8.61669922 98.89331055 C-9.19693848 97.83539307 -9.77717773 96.77747559 -10.375 95.6875 C-15.11562268 87.13090583 -19.92347603 78.62385083 -24.875 70.1875 C-29.86419358 61.66405563 -34.85007834 53.13883464 -39.78131104 44.58169556 C-40.50629047 43.32608006 -41.23360159 42.07180776 -41.96331787 40.81893921 C-42.97902609 39.07422735 -43.9858135 37.32433133 -44.9921875 35.57421875 C-45.57339355 34.56963623 -46.15459961 33.56505371 -46.75341797 32.5300293 C-48 30 -48 30 -48 27 C-46.14599609 25.58056641 -46.14599609 25.58056641 -43.5234375 24.1015625 C-42.55229004 23.54549316 -41.58114258 22.98942383 -40.58056641 22.41650391 C-39.52272949 21.82530762 -38.46489258 21.23411133 -37.375 20.625 C-35.18176932 19.37591672 -32.98907358 18.12589378 -30.796875 16.875 C-29.67216797 16.23691406 -28.54746094 15.59882812 -27.38867188 14.94140625 C-21.13257377 11.35722094 -14.95837824 7.63327306 -8.78271484 3.91259766 C-7.91855957 3.39745605 -7.0544043 2.88231445 -6.1640625 2.3515625 C-5.40561035 1.89604004 -4.6471582 1.44051758 -3.86572266 0.97119141 C-2 0 -2 0 0 0 Z " fill="#682FBD" transform="translate(939,709)"/>
</svg>
